<svg width="24" height="24" viewBox="0 0 24 24" fill="none" xmlns="http://www.w3.org/2000/svg">
<g clip-path="url(#clip0_271_1309)">
<circle cx="12" cy="12" r="12" fill="#F33F3F"/>
<path d="M18.6552 11.1684L12.8267 5.33265C12.7158 5.2264 12.5851 5.1431 12.442 5.08755C12.1582 4.97082 11.8398 4.97082 11.556 5.08755C11.4129 5.1431 11.2822 5.2264 11.1714 5.33265L5.34282 11.1684C5.23414 11.2772 5.14792 11.4064 5.0891 11.5486C5.03028 11.6908 5 11.8432 5 11.9971C5 12.3079 5.12332 12.606 5.34282 12.8258C5.56233 13.0455 5.86005 13.169 6.17048 13.169C6.48091 13.169 6.77862 13.0455 6.99813 12.8258L10.8333 8.97417V17.8328C10.8333 18.1424 10.9561 18.4393 11.1747 18.6582C11.3933 18.877 11.6898 19 11.999 19C12.3082 19 12.6047 18.877 12.8233 18.6582C13.0419 18.4393 13.1647 18.1424 13.1647 17.8328V8.97417L16.9999 12.8258C17.1083 12.9352 17.2372 13.022 17.3792 13.0812C17.5213 13.1405 17.6736 13.171 17.8275 13.171C17.9814 13.171 18.1338 13.1405 18.2758 13.0812C18.4179 13.022 18.5468 12.9352 18.6552 12.8258C18.7644 12.7173 18.8512 12.5882 18.9103 12.4459C18.9695 12.3037 19 12.1512 19 11.9971C19 11.843 18.9695 11.6905 18.9103 11.5482C18.8512 11.406 18.7644 11.2769 18.6552 11.1684Z" fill="white"/>
</g>
<defs>
<clipPath id="clip0_271_1309">
<rect width="24" height="24" fill="white"/>
</clipPath>
</defs>
</svg>
