<svg width="220" height="330" viewBox="0 0 220 330" fill="none" xmlns="http://www.w3.org/2000/svg">
<rect width="220" height="330" fill="#383839"/>
<path d="M159.697 94.697H59.6981C48.6519 94.697 39.6973 103.652 39.6973 114.698V214.697C39.6973 225.743 48.6519 234.698 59.6981 234.698H159.697C170.743 234.698 179.698 225.743 179.698 214.697V114.698C179.698 103.652 170.743 94.697 159.697 94.697Z" stroke="#222222" stroke-width="8" stroke-linecap="round" stroke-linejoin="round"/>
<path d="M89.6983 164.698C59.6983 164.698 49.6982 184.698 39.6982 184.698" stroke="#222222" stroke-width="8" stroke-linecap="round" stroke-linejoin="round"/>
<path d="M89.6982 164.698C119.698 164.698 131.232 184.698 149.698 184.698" stroke="#222222" stroke-width="8" stroke-linecap="round" stroke-linejoin="round"/>
<path d="M179.698 174.698C144.698 174.698 139.698 204.698 119.698 204.698" stroke="#222222" stroke-width="8" stroke-linecap="round" stroke-linejoin="round"/>
<path d="M139.699 154.699C150.745 154.699 159.7 145.745 159.7 134.699C159.7 123.653 150.745 114.698 139.699 114.698C128.653 114.698 119.698 123.653 119.698 134.699C119.698 145.745 128.653 154.699 139.699 154.699Z" stroke="#222222" stroke-width="8" stroke-linecap="round" stroke-linejoin="round"/>
</svg>
