<svg width="200" height="300" viewBox="0 0 200 300" fill="none" xmlns="http://www.w3.org/2000/svg">
<rect width="200" height="300" rx="8" fill="#C7C7C7"/>
<path d="M137.999 101.882V158.353C137.999 159.815 136.814 161 135.352 161H78.8814C77.4195 161 76.2344 159.815 76.2344 158.353V101.882C76.2344 100.42 77.4195 99.2352 78.8814 99.2352H135.352C136.814 99.2352 137.999 100.42 137.999 101.882Z" stroke="#919191" stroke-width="4.9376" stroke-linecap="round" stroke-linejoin="round"/>
<path d="M124.765 86H65.6471C64.1851 86 63 87.1851 63 88.6471V147.765" stroke="#919191" stroke-width="4.9376" stroke-linecap="round" stroke-linejoin="round"/>
<path d="M76.2344 142.471L100.254 134.529L137.999 147.765" stroke="#919191" stroke-width="4.9376" stroke-linecap="round" stroke-linejoin="round"/>
<path d="M118.147 125.706C114.492 125.706 111.529 122.743 111.529 119.088C111.529 115.434 114.492 112.471 118.147 112.471C121.802 112.471 124.765 115.434 124.765 119.088C124.765 122.743 121.802 125.706 118.147 125.706Z" stroke="#919191" stroke-width="4.9376" stroke-linecap="round" stroke-linejoin="round"/>
<path d="M24.464 191.254H26.326V204.26H24.464V191.254ZM19.34 192.164C20.0027 192.164 20.5907 192.355 21.104 192.738C21.6173 193.111 22.0187 193.648 22.308 194.348C22.6067 195.039 22.756 195.855 22.756 196.798C22.756 197.75 22.6067 198.576 22.308 199.276C22.0187 199.967 21.6173 200.503 21.104 200.886C20.5907 201.259 20.0027 201.446 19.34 201.446C18.6867 201.446 18.1033 201.259 17.59 200.886C17.0767 200.503 16.6707 199.967 16.372 199.276C16.0827 198.576 15.938 197.75 15.938 196.798C15.938 195.855 16.0827 195.039 16.372 194.348C16.6707 193.648 17.0767 193.111 17.59 192.738C18.1033 192.355 18.6867 192.164 19.34 192.164ZM19.34 193.858C19.0227 193.858 18.7427 193.97 18.5 194.194C18.2573 194.418 18.066 194.749 17.926 195.188C17.7953 195.617 17.73 196.154 17.73 196.798C17.73 197.433 17.7953 197.974 17.926 198.422C18.066 198.861 18.2573 199.192 18.5 199.416C18.7427 199.64 19.0227 199.752 19.34 199.752C19.6667 199.752 19.9513 199.64 20.194 199.416C20.4367 199.192 20.6233 198.861 20.754 198.422C20.894 197.974 20.964 197.433 20.964 196.798C20.964 196.154 20.894 195.617 20.754 195.188C20.6233 194.749 20.4367 194.418 20.194 194.194C19.9513 193.97 19.6667 193.858 19.34 193.858ZM29.0829 192.43H35.3129V201.152H29.0829V192.43ZM33.4929 193.9H30.9169V199.682H33.4929V193.9ZM37.3429 191.254H39.2049V204.26H37.3429V191.254ZM44.4538 193.326H45.9378V194.782C45.9378 195.529 45.8585 196.261 45.6998 196.98C45.5505 197.699 45.3218 198.375 45.0138 199.01C44.7151 199.635 44.3371 200.191 43.8798 200.676C43.4225 201.152 42.8905 201.53 42.2838 201.81L41.2198 200.34C41.7611 200.088 42.2325 199.761 42.6338 199.36C43.0445 198.959 43.3805 198.511 43.6418 198.016C43.9125 197.512 44.1131 196.985 44.2438 196.434C44.3838 195.874 44.4538 195.323 44.4538 194.782V193.326ZM44.8598 193.326H46.3298V194.782C46.3298 195.295 46.3951 195.818 46.5258 196.35C46.6658 196.873 46.8665 197.372 47.1278 197.848C47.3891 198.315 47.7205 198.735 48.1218 199.108C48.5231 199.481 48.9991 199.78 49.5498 200.004L48.5278 201.488C47.9118 201.217 47.3751 200.853 46.9178 200.396C46.4605 199.939 46.0778 199.411 45.7698 198.814C45.4618 198.217 45.2331 197.577 45.0838 196.896C44.9345 196.205 44.8598 195.501 44.8598 194.782V193.326ZM41.7378 192.514H49.0178V194.054H41.7378V192.514ZM50.2218 191.282H52.0838V204.246H50.2218V191.282ZM54.2107 197.092H65.9427V198.436H54.2107V197.092ZM55.5267 199.094H64.5567V202.174H57.3887V203.28H55.5407V200.998H62.7227V200.354H55.5267V199.094ZM55.5407 202.874H64.9207V204.134H55.5407V202.874ZM55.6387 191.492H64.5147V194.558H57.5007V195.608H55.6667V193.382H62.6807V192.752H55.6387V191.492ZM55.6667 195.23H64.7527V196.49H55.6667V195.23ZM75.2439 197.54H77.0919V199.346H75.2439V197.54ZM71.8139 191.464H73.6479V192.318H78.7159V191.464H80.5639V195.818H71.8139V191.464ZM73.6479 193.676V194.432H78.7159V193.676H73.6479ZM70.3159 196.49H82.0479V197.96H70.3159V196.49ZM71.6599 198.758H80.6199V202.062H73.5219V203.238H71.6739V200.774H78.7859V200.116H71.6599V198.758ZM71.6739 202.762H80.9699V204.162H71.6739V202.762ZM92.1968 191.254H94.0448V204.26H92.1968V191.254ZM90.1668 195.93H92.5748V197.428H90.1668V195.93ZM83.6428 199.738H84.7068C85.4161 199.738 86.0788 199.729 86.6948 199.71C87.3201 199.691 87.9314 199.659 88.5288 199.612C89.1261 199.556 89.7374 199.477 90.3628 199.374L90.5308 200.886C89.8868 200.989 89.2568 201.068 88.6408 201.124C88.0248 201.18 87.3948 201.217 86.7508 201.236C86.1161 201.255 85.4348 201.264 84.7068 201.264H83.6428V199.738ZM83.6288 192.36H89.4668V197.246H85.4908V200.186H83.6428V195.776H87.6328V193.844H83.6288V192.36ZM101.016 198.562H102.864V201.516H101.016V198.562ZM101.94 191.94C102.864 191.94 103.69 192.089 104.418 192.388C105.155 192.677 105.734 193.088 106.154 193.62C106.574 194.152 106.784 194.782 106.784 195.51C106.784 196.229 106.574 196.859 106.154 197.4C105.734 197.941 105.155 198.361 104.418 198.66C103.69 198.949 102.864 199.094 101.94 199.094C101.025 199.094 100.199 198.949 99.4617 198.66C98.7337 198.361 98.155 197.941 97.7257 197.4C97.3057 196.859 97.0957 196.229 97.0957 195.51C97.0957 194.782 97.3057 194.152 97.7257 193.62C98.155 193.088 98.7337 192.677 99.4617 192.388C100.199 192.089 101.025 191.94 101.94 191.94ZM101.94 193.41C101.352 193.41 100.829 193.494 100.372 193.662C99.9237 193.83 99.569 194.068 99.3077 194.376C99.0557 194.684 98.9297 195.062 98.9297 195.51C98.9297 195.949 99.0557 196.327 99.3077 196.644C99.569 196.952 99.9237 197.19 100.372 197.358C100.829 197.526 101.352 197.61 101.94 197.61C102.537 197.61 103.06 197.526 103.508 197.358C103.965 197.19 104.32 196.952 104.572 196.644C104.824 196.327 104.95 195.949 104.95 195.51C104.95 195.062 104.824 194.684 104.572 194.376C104.32 194.068 103.965 193.83 103.508 193.662C103.06 193.494 102.537 193.41 101.94 193.41ZM96.0877 201.222H107.834V202.734H96.0877V201.222ZM110.409 194.768H119.397V196.252H110.409V194.768ZM108.967 197.596H120.699V199.08H108.967V197.596ZM110.409 191.73H112.271V195.51H110.409V191.73ZM110.297 202.468H119.467V203.966H110.297V202.468ZM110.297 200.102H112.159V202.874H110.297V200.102ZM130.014 197.792H131.862V200.074H130.014V197.792ZM125.072 197.162H136.804V198.646H125.072V197.162ZM130.91 199.556C132.31 199.556 133.411 199.761 134.214 200.172C135.016 200.573 135.418 201.152 135.418 201.908C135.418 202.645 135.016 203.219 134.214 203.63C133.411 204.041 132.31 204.246 130.91 204.246C129.51 204.246 128.408 204.041 127.606 203.63C126.812 203.219 126.416 202.645 126.416 201.908C126.416 201.152 126.812 200.573 127.606 200.172C128.408 199.761 129.51 199.556 130.91 199.556ZM130.91 200.97C130.331 200.97 129.846 201.003 129.454 201.068C129.071 201.133 128.782 201.236 128.586 201.376C128.39 201.507 128.292 201.684 128.292 201.908C128.292 202.113 128.39 202.286 128.586 202.426C128.782 202.566 129.071 202.669 129.454 202.734C129.846 202.799 130.331 202.832 130.91 202.832C131.488 202.832 131.969 202.799 132.352 202.734C132.744 202.669 133.038 202.566 133.234 202.426C133.43 202.286 133.528 202.113 133.528 201.908C133.528 201.684 133.43 201.507 133.234 201.376C133.038 201.236 132.744 201.133 132.352 201.068C131.969 201.003 131.488 200.97 130.91 200.97ZM129.664 192.5H131.316V192.808C131.316 193.2 131.246 193.573 131.106 193.928C130.966 194.283 130.756 194.614 130.476 194.922C130.205 195.221 129.864 195.491 129.454 195.734C129.043 195.977 128.567 196.177 128.026 196.336C127.484 196.495 126.882 196.607 126.22 196.672L125.576 195.202C126.145 195.155 126.649 195.076 127.088 194.964C127.536 194.852 127.918 194.717 128.236 194.558C128.562 194.39 128.828 194.213 129.034 194.026C129.248 193.83 129.407 193.629 129.51 193.424C129.612 193.219 129.664 193.013 129.664 192.808V192.5ZM130.574 192.5H132.212V192.808C132.212 193.013 132.263 193.223 132.366 193.438C132.468 193.643 132.622 193.839 132.828 194.026C133.042 194.213 133.308 194.39 133.626 194.558C133.952 194.717 134.335 194.852 134.774 194.964C135.222 195.076 135.73 195.155 136.3 195.202L135.656 196.672C134.993 196.607 134.391 196.495 133.85 196.336C133.308 196.177 132.832 195.981 132.422 195.748C132.02 195.505 131.68 195.235 131.4 194.936C131.129 194.628 130.924 194.297 130.784 193.942C130.644 193.578 130.574 193.2 130.574 192.808V192.5ZM126.15 191.814H135.754V193.284H126.15V191.814ZM146.869 191.282H148.731V198.24H146.869V191.282ZM140.121 198.814H141.955V200.018H146.883V198.814H148.731V204.106H140.121V198.814ZM141.955 201.446V202.622H146.883V201.446H141.955ZM141.675 191.814C142.347 191.814 142.949 191.945 143.481 192.206C144.013 192.467 144.433 192.827 144.741 193.284C145.049 193.741 145.203 194.269 145.203 194.866C145.203 195.463 145.049 195.995 144.741 196.462C144.433 196.919 144.013 197.279 143.481 197.54C142.949 197.801 142.347 197.932 141.675 197.932C141.003 197.932 140.401 197.801 139.869 197.54C139.337 197.279 138.917 196.919 138.609 196.462C138.301 195.995 138.147 195.463 138.147 194.866C138.147 194.269 138.301 193.741 138.609 193.284C138.917 192.827 139.337 192.467 139.869 192.206C140.401 191.945 141.003 191.814 141.675 191.814ZM141.675 193.34C141.348 193.34 141.054 193.401 140.793 193.522C140.531 193.643 140.326 193.821 140.177 194.054C140.037 194.278 139.967 194.549 139.967 194.866C139.967 195.193 140.037 195.473 140.177 195.706C140.326 195.93 140.531 196.103 140.793 196.224C141.054 196.336 141.348 196.392 141.675 196.392C142.001 196.392 142.291 196.336 142.543 196.224C142.804 196.103 143.009 195.93 143.159 195.706C143.308 195.473 143.383 195.193 143.383 194.866C143.383 194.549 143.308 194.278 143.159 194.054C143.009 193.821 142.804 193.643 142.543 193.522C142.291 193.401 142.001 193.34 141.675 193.34ZM159.818 191.268H161.666V204.232H159.818V191.268ZM151.516 192.5H153.378V200.564H151.516V192.5ZM151.516 199.458H152.664C153.616 199.458 154.61 199.421 155.646 199.346C156.682 199.262 157.736 199.113 158.81 198.898L159.006 200.452C157.904 200.685 156.817 200.844 155.744 200.928C154.68 201.003 153.653 201.04 152.664 201.04H151.516V199.458ZM171.996 191.254H173.872V204.26H171.996V191.254ZM173.466 196.056H175.748V197.596H173.466V196.056ZM164.212 199.612H165.304C166.042 199.612 166.732 199.603 167.376 199.584C168.02 199.556 168.646 199.514 169.252 199.458C169.859 199.393 170.48 199.304 171.114 199.192L171.296 200.732C170.643 200.844 169.999 200.933 169.364 200.998C168.739 201.063 168.095 201.105 167.432 201.124C166.77 201.143 166.06 201.152 165.304 201.152H164.212V199.612ZM164.212 192.458H170.26V193.956H166.074V200.34H164.212V192.458ZM178.11 203.129C177.782 203.129 177.501 203.013 177.265 202.781C177.033 202.546 176.917 202.264 176.917 201.936C176.917 201.611 177.033 201.333 177.265 201.101C177.501 200.869 177.782 200.753 178.11 200.753C178.429 200.753 178.707 200.869 178.946 201.101C179.184 201.333 179.304 201.611 179.304 201.936C179.304 202.155 179.247 202.355 179.135 202.538C179.025 202.717 178.881 202.861 178.702 202.97C178.523 203.076 178.326 203.129 178.11 203.129ZM182.28 203.129C181.952 203.129 181.671 203.013 181.435 202.781C181.203 202.546 181.087 202.264 181.087 201.936C181.087 201.611 181.203 201.333 181.435 201.101C181.671 200.869 181.952 200.753 182.28 200.753C182.599 200.753 182.877 200.869 183.116 201.101C183.354 201.333 183.474 201.611 183.474 201.936C183.474 202.155 183.417 202.355 183.305 202.538C183.195 202.717 183.051 202.861 182.872 202.97C182.693 203.076 182.496 203.129 182.28 203.129Z" fill="white"/>
</svg>
