<svg width="200" height="300" viewBox="0 0 200 300" fill="none" xmlns="http://www.w3.org/2000/svg">
<g clip-path="url(#clip0_305_2237)">
<path d="M200 0H0V300H200V0Z" fill="#50555B"/>
<path d="M53.0156 227.297H51.7812V213.375H53.0156V227.297ZM45.625 214.453C46.3125 214.458 46.9245 214.661 47.4609 215.062C47.9974 215.458 48.4167 216.021 48.7188 216.75C49.0208 217.479 49.1719 218.328 49.1719 219.297C49.1719 220.266 49.0208 221.115 48.7188 221.844C48.4167 222.573 47.9974 223.135 47.4609 223.531C46.9245 223.927 46.3125 224.125 45.625 224.125C44.9375 224.125 44.3229 223.927 43.7812 223.531C43.2448 223.135 42.8255 222.573 42.5234 221.844C42.2266 221.115 42.0781 220.266 42.0781 219.297C42.0781 218.328 42.2266 217.479 42.5234 216.75C42.8255 216.021 43.2448 215.458 43.7812 215.062C44.3177 214.661 44.9323 214.458 45.625 214.453ZM45.625 215.547C45.1615 215.552 44.75 215.711 44.3906 216.023C44.0365 216.331 43.7604 216.768 43.5625 217.336C43.3646 217.898 43.2656 218.552 43.2656 219.297C43.2656 220.042 43.3646 220.698 43.5625 221.266C43.7604 221.828 44.0391 222.263 44.3984 222.57C44.7578 222.878 45.1667 223.031 45.625 223.031C46.0833 223.031 46.4922 222.878 46.8516 222.57C47.2109 222.263 47.4896 221.828 47.6875 221.266C47.8854 220.698 47.9844 220.042 47.9844 219.297C47.9844 218.552 47.8854 217.898 47.6875 217.336C47.4896 216.768 47.2109 216.331 46.8516 216.023C46.4974 215.711 46.0885 215.552 45.625 215.547ZM62.625 223.781H56.2031V214.75H62.625V223.781ZM57.4062 222.781H61.4219V215.734H57.4062V222.781ZM66.8438 227.297H65.6094V213.375H66.8438V227.297ZM74.1875 217.641C74.1875 218.406 74.3568 219.169 74.6953 219.93C75.0339 220.685 75.4896 221.359 76.0625 221.953C76.6406 222.542 77.2708 222.984 77.9531 223.281L77.2656 224.25C76.4479 223.875 75.7109 223.31 75.0547 222.555C74.3984 221.794 73.9089 220.938 73.5859 219.984C73.263 221.005 72.7734 221.93 72.1172 222.758C71.4661 223.581 70.7448 224.193 69.9531 224.594L69.2188 223.625C69.875 223.307 70.487 222.828 71.0547 222.188C71.6276 221.547 72.0859 220.826 72.4297 220.023C72.7734 219.216 72.9479 218.422 72.9531 217.641V215.828H69.6719V214.812H77.5V215.828H74.1875V217.641ZM80.6719 227.266H79.4375V213.375H80.6719V227.266ZM93.7969 219.031H96.0469V220.062H93.7969V227.266H92.5781V213.375H93.7969V219.031ZM90.2031 214.875C90.2031 216.943 89.6849 218.818 88.6484 220.5C87.612 222.177 86.0052 223.552 83.8281 224.625L83.1406 223.656C84.9271 222.766 86.3099 221.667 87.2891 220.359C88.2682 219.047 88.8281 217.562 88.9688 215.906H83.7812V214.875H90.2031ZM103.656 223.266H106.188V221.531H107.328V227.078H102.5V221.531H103.656V223.266ZM106.188 226.109V224.203H103.656V226.109H106.188ZM111.297 222.625C111.292 223.125 111.385 223.615 111.578 224.094C111.776 224.568 112.068 224.995 112.453 225.375C112.844 225.755 113.312 226.047 113.859 226.25L113.219 227.188C112.599 226.938 112.073 226.583 111.641 226.125C111.214 225.667 110.891 225.138 110.672 224.539C110.443 225.128 110.115 225.651 109.688 226.109C109.26 226.573 108.75 226.932 108.156 227.188L107.516 226.25C108.057 226.026 108.521 225.721 108.906 225.336C109.292 224.951 109.583 224.523 109.781 224.055C109.979 223.581 110.078 223.104 110.078 222.625V221.438H111.297V222.625ZM104.719 214C105.333 214 105.893 214.109 106.398 214.328C106.904 214.547 107.318 214.859 107.641 215.266C107.969 215.667 108.177 216.13 108.266 216.656H111.172V213.375H112.406V220.734H111.172V217.672H108.273C108.195 218.214 107.992 218.69 107.664 219.102C107.341 219.513 106.924 219.831 106.414 220.055C105.904 220.279 105.339 220.391 104.719 220.391C104.021 220.391 103.398 220.258 102.852 219.992C102.305 219.721 101.878 219.344 101.57 218.859C101.263 218.37 101.109 217.812 101.109 217.188C101.109 216.568 101.263 216.016 101.57 215.531C101.878 215.047 102.305 214.672 102.852 214.406C103.398 214.135 104.021 214 104.719 214ZM104.719 215.031C104.25 215.031 103.831 215.122 103.461 215.305C103.091 215.487 102.802 215.742 102.594 216.07C102.385 216.398 102.281 216.771 102.281 217.188C102.281 217.609 102.385 217.987 102.594 218.32C102.802 218.648 103.091 218.906 103.461 219.094C103.831 219.281 104.25 219.375 104.719 219.375C105.182 219.375 105.596 219.281 105.961 219.094C106.326 218.906 106.609 218.648 106.812 218.32C107.021 217.987 107.125 217.609 107.125 217.188C107.125 216.771 107.021 216.398 106.812 216.07C106.609 215.742 106.326 215.487 105.961 215.305C105.596 215.122 105.182 215.031 104.719 215.031ZM117.547 223.344H124.484V221.719H125.719V227.078H116.328V221.719H117.547V223.344ZM124.484 226.094V224.312H117.547V226.094H124.484ZM127.375 220.734H114.719V219.719H127.375V220.734ZM121.688 214.188C121.688 214.74 121.927 215.271 122.406 215.781C122.885 216.286 123.508 216.716 124.273 217.07C125.044 217.419 125.839 217.646 126.656 217.75L126.203 218.734C125.479 218.625 124.776 218.435 124.094 218.164C123.417 217.888 122.812 217.544 122.281 217.133C121.75 216.721 121.341 216.263 121.055 215.758C120.768 216.263 120.357 216.721 119.82 217.133C119.289 217.544 118.685 217.888 118.008 218.164C117.331 218.435 116.63 218.625 115.906 218.734L115.438 217.75C116.271 217.641 117.07 217.414 117.836 217.07C118.607 216.721 119.229 216.297 119.703 215.797C120.182 215.292 120.422 214.755 120.422 214.188V213.531H121.688V214.188ZM140 227.266H138.781V213.375H140V227.266ZM130.656 222.625C133.005 222.615 135.219 222.391 137.297 221.953L137.469 223C136.286 223.245 135.135 223.422 134.016 223.531C132.896 223.635 131.75 223.688 130.578 223.688H129.453V214.75H130.656V222.625ZM153.125 218.875H155.453V219.906H153.125V227.297H151.906V213.375H153.125V218.875ZM149.469 215.75H144.203V222.781C145.5 222.781 146.633 222.745 147.602 222.672C148.57 222.599 149.557 222.469 150.562 222.281L150.719 223.344C149.693 223.531 148.685 223.656 147.695 223.719C146.706 223.781 145.5 223.812 144.078 223.812H142.984V214.734H149.469V215.75ZM157.672 226.094C157.49 226.094 157.32 226.049 157.164 225.961C157.013 225.867 156.891 225.742 156.797 225.586C156.708 225.43 156.667 225.26 156.672 225.078C156.667 224.901 156.708 224.737 156.797 224.586C156.891 224.43 157.013 224.307 157.164 224.219C157.32 224.125 157.49 224.078 157.672 224.078C157.849 224.078 158.013 224.125 158.164 224.219C158.32 224.307 158.443 224.43 158.531 224.586C158.625 224.737 158.672 224.901 158.672 225.078C158.672 225.26 158.625 225.43 158.531 225.586C158.443 225.742 158.32 225.867 158.164 225.961C158.013 226.049 157.849 226.094 157.672 226.094Z" fill="#A9A9A9"/>
<path d="M133.333 110C133.333 125.714 133.333 133.571 128.451 138.452C123.57 143.334 115.713 143.334 99.9993 143.334C84.2859 143.334 76.4291 143.334 71.5476 138.452C66.666 133.571 66.666 125.714 66.666 110C66.666 94.2868 66.666 86.4301 71.5476 81.5485C76.4291 76.667 84.2859 76.667 99.9993 76.667" stroke="#A9A9A9" stroke-width="5" stroke-linecap="round"/>
<path d="M66.666 111.667L72.5046 106.558C75.5422 103.9 80.1203 104.053 82.9743 106.907L97.2734 121.206C99.5642 123.497 103.17 123.809 105.821 121.946L106.815 121.248C110.629 118.567 115.789 118.878 119.254 121.996L129.999 131.667" stroke="#A9A9A9" stroke-width="5" stroke-linecap="round"/>
<path d="M133.334 76.6671L113.334 96.667M113.334 76.667L133.334 96.6669" stroke="#A9A9A9" stroke-width="5" stroke-linecap="round"/>
</g>
<defs>
<clipPath id="clip0_305_2237">
<rect width="200" height="300" fill="white"/>
</clipPath>
</defs>
</svg>
