<svg width="200" height="300" viewBox="0 0 200 300" fill="none" xmlns="http://www.w3.org/2000/svg">
<rect width="200" height="300" fill="#50555B"/>
<path d="M102.381 137.708C93.3433 143.766 87.0133 153.878 79.9229 163.375" stroke="#A9A9A9" stroke-width="4.8125" stroke-linecap="round" stroke-linejoin="round"/>
<path d="M73.1145 107.229C69.0207 111.83 69.0207 119.206 69.0207 133.682C69.0207 148.437 69.0207 155.813 73.3519 160.398C77.6832 164.979 84.6549 164.979 98.5983 164.979C112.243 164.979 119.212 164.427 123.562 160.128M113.937 134.545C118.878 134.205 124.191 135.565 129.969 139.697M129.969 139.697C129.978 138.078 129.981 136.346 129.979 134.5C129.979 120.133 129.979 112.946 125.516 108.483C121.053 104.021 113.87 104.021 99.4998 104.021C91.7678 104.021 86.1211 104.021 81.854 104.717M129.969 139.697C129.937 144.853 129.812 148.899 129.283 152.146M67.4165 102.417L131.583 166.583" stroke="#A9A9A9" stroke-width="4.8125" stroke-linecap="round" stroke-linejoin="round"/>
<path d="M62.484 190.076H63.48V200.948H62.484V190.076ZM57.756 190.916C58.292 190.916 58.764 191.072 59.172 191.384C59.588 191.688 59.912 192.124 60.144 192.692C60.384 193.26 60.504 193.928 60.504 194.696C60.504 195.464 60.384 196.132 60.144 196.7C59.912 197.268 59.588 197.708 59.172 198.02C58.764 198.332 58.292 198.488 57.756 198.488C57.22 198.488 56.744 198.332 56.328 198.02C55.912 197.708 55.584 197.268 55.344 196.7C55.112 196.132 54.996 195.464 54.996 194.696C54.996 193.928 55.112 193.26 55.344 192.692C55.584 192.124 55.912 191.688 56.328 191.384C56.744 191.072 57.22 190.916 57.756 190.916ZM57.756 191.804C57.396 191.804 57.08 191.924 56.808 192.164C56.544 192.396 56.336 192.732 56.184 193.172C56.032 193.604 55.956 194.112 55.956 194.696C55.956 195.28 56.032 195.792 56.184 196.232C56.336 196.664 56.544 197 56.808 197.24C57.08 197.48 57.396 197.6 57.756 197.6C58.108 197.6 58.416 197.48 58.68 197.24C58.952 197 59.164 196.664 59.316 196.232C59.468 195.792 59.544 195.28 59.544 194.696C59.544 194.112 59.468 193.604 59.316 193.172C59.164 192.732 58.952 192.396 58.68 192.164C58.416 191.924 58.108 191.804 57.756 191.804ZM66.2511 191.144H71.2431V198.212H66.2511V191.144ZM70.2831 191.936H67.2351V197.408H70.2831V191.936ZM73.5231 190.076H74.5191V200.948H73.5231V190.076ZM79.5461 191.636H80.3621V193.388C80.3621 193.964 80.2821 194.532 80.1221 195.092C79.9621 195.644 79.7381 196.168 79.4501 196.664C79.1701 197.152 78.8421 197.584 78.4661 197.96C78.0901 198.336 77.6861 198.632 77.2541 198.848L76.6781 198.056C77.0701 197.864 77.4381 197.604 77.7821 197.276C78.1341 196.948 78.4421 196.572 78.7061 196.148C78.9701 195.724 79.1741 195.276 79.3181 194.804C79.4701 194.332 79.5461 193.86 79.5461 193.388V191.636ZM79.7501 191.636H80.5541V193.388C80.5541 193.844 80.6261 194.3 80.7701 194.756C80.9221 195.204 81.1301 195.628 81.3941 196.028C81.6661 196.42 81.9741 196.768 82.3181 197.072C82.6701 197.376 83.0461 197.616 83.4461 197.792L82.8941 198.584C82.4541 198.376 82.0421 198.096 81.6581 197.744C81.2741 197.392 80.9381 196.988 80.6501 196.532C80.3701 196.068 80.1501 195.572 79.9901 195.044C79.8301 194.508 79.7501 193.956 79.7501 193.388V191.636ZM77.0261 191.192H83.0861V192.02H77.0261V191.192ZM84.5621 190.076H85.5581V200.936H84.5621V190.076ZM95.0612 190.076H96.0572V200.924H95.0612V190.076ZM95.7932 194.48H97.7852V195.308H95.7932V194.48ZM92.2892 191.24H93.2612C93.2612 192.272 93.0932 193.26 92.7572 194.204C92.4212 195.14 91.8932 196.008 91.1732 196.808C90.4532 197.6 89.5052 198.288 88.3292 198.872L87.7772 198.104C88.7852 197.6 89.6212 197.012 90.2852 196.34C90.9572 195.66 91.4572 194.908 91.7852 194.084C92.1212 193.252 92.2892 192.356 92.2892 191.396V191.24ZM88.2812 191.24H92.7932V192.068H88.2812V191.24ZM103.367 196.448H104.303V197.792H106.199V196.448H107.123V200.792H103.367V196.448ZM104.303 198.548V200.012H106.199V198.548H104.303ZM109.223 196.376H110.003V197.288C110.003 197.776 109.919 198.256 109.751 198.728C109.583 199.192 109.331 199.612 108.995 199.988C108.667 200.364 108.255 200.66 107.759 200.876L107.255 200.12C107.687 199.936 108.051 199.692 108.347 199.388C108.643 199.084 108.863 198.748 109.007 198.38C109.151 198.012 109.223 197.648 109.223 197.288V196.376ZM109.439 196.376H110.207V197.288C110.207 197.672 110.279 198.052 110.423 198.428C110.575 198.796 110.799 199.128 111.095 199.424C111.391 199.72 111.755 199.952 112.187 200.12L111.671 200.876C111.167 200.668 110.751 200.38 110.423 200.012C110.095 199.644 109.847 199.224 109.679 198.752C109.519 198.28 109.439 197.792 109.439 197.288V196.376ZM107.579 192.62H110.495V193.448H107.579V192.62ZM105.095 190.556C105.631 190.556 106.107 190.664 106.523 190.88C106.947 191.088 107.279 191.38 107.519 191.756C107.759 192.124 107.879 192.556 107.879 193.052C107.879 193.54 107.759 193.976 107.519 194.36C107.279 194.736 106.947 195.032 106.523 195.248C106.107 195.456 105.631 195.56 105.095 195.56C104.551 195.56 104.067 195.456 103.643 195.248C103.227 195.032 102.899 194.736 102.659 194.36C102.419 193.976 102.299 193.54 102.299 193.052C102.299 192.556 102.419 192.124 102.659 191.756C102.899 191.38 103.227 191.088 103.643 190.88C104.067 190.664 104.551 190.556 105.095 190.556ZM105.095 191.384C104.735 191.384 104.415 191.456 104.135 191.6C103.863 191.736 103.647 191.932 103.487 192.188C103.327 192.436 103.247 192.724 103.247 193.052C103.247 193.38 103.327 193.672 103.487 193.928C103.647 194.176 103.863 194.372 104.135 194.516C104.415 194.66 104.735 194.732 105.095 194.732C105.447 194.732 105.759 194.66 106.031 194.516C106.311 194.372 106.531 194.176 106.691 193.928C106.851 193.672 106.931 193.38 106.931 193.052C106.931 192.724 106.851 192.436 106.691 192.188C106.531 191.932 106.311 191.736 106.031 191.6C105.759 191.456 105.447 191.384 105.095 191.384ZM110.063 190.076H111.059V195.824H110.063V190.076ZM114.406 196.592H115.39V197.84H120.706V196.592H121.69V200.792H114.406V196.592ZM115.39 198.62V199.988H120.706V198.62H115.39ZM113.17 195.02H122.974V195.836H113.17V195.02ZM117.562 190.196H118.426V190.688C118.426 191.064 118.346 191.42 118.186 191.756C118.026 192.084 117.806 192.388 117.526 192.668C117.254 192.94 116.934 193.184 116.566 193.4C116.206 193.616 115.814 193.796 115.39 193.94C114.974 194.084 114.542 194.192 114.094 194.264L113.722 193.472C114.114 193.416 114.494 193.328 114.862 193.208C115.238 193.088 115.59 192.944 115.918 192.776C116.246 192.6 116.534 192.404 116.782 192.188C117.03 191.964 117.222 191.728 117.358 191.48C117.494 191.224 117.562 190.96 117.562 190.688V190.196ZM117.73 190.196H118.582V190.688C118.582 190.952 118.65 191.212 118.786 191.468C118.93 191.716 119.126 191.952 119.374 192.176C119.622 192.392 119.906 192.588 120.226 192.764C120.554 192.94 120.902 193.092 121.27 193.22C121.646 193.34 122.026 193.424 122.41 193.472L122.05 194.264C121.602 194.192 121.166 194.084 120.742 193.94C120.326 193.796 119.934 193.616 119.566 193.4C119.206 193.176 118.886 192.924 118.606 192.644C118.334 192.364 118.118 192.06 117.958 191.732C117.806 191.404 117.73 191.056 117.73 190.688V190.196ZM132.105 190.076H133.089V200.936H132.105V190.076ZM124.893 191.144H125.877V197.864H124.893V191.144ZM124.893 197.276H125.781C126.613 197.276 127.457 197.24 128.313 197.168C129.177 197.088 130.065 196.956 130.977 196.772L131.109 197.612C130.165 197.812 129.257 197.952 128.385 198.032C127.513 198.104 126.645 198.14 125.781 198.14H124.893V197.276ZM142.592 190.076H143.588V200.948H142.592V190.076ZM143.36 194.36H145.364V195.188H143.36V194.36ZM135.716 197.396H136.568C137.232 197.396 137.84 197.388 138.392 197.372C138.952 197.348 139.488 197.308 140 197.252C140.52 197.196 141.048 197.12 141.584 197.024L141.704 197.876C141.144 197.972 140.6 198.048 140.072 198.104C139.552 198.16 139.008 198.196 138.44 198.212C137.872 198.228 137.248 198.236 136.568 198.236H135.716V197.396ZM135.716 191.132H140.744V191.948H136.7V197.78H135.716V191.132Z" fill="#A9A9A9"/>
</svg>
