<svg width="200" height="300" viewBox="0 0 200 300" fill="none" xmlns="http://www.w3.org/2000/svg">
<g clip-path="url(#clip0_305_2229)">
<path d="M200 0H0V300H200V0Z" fill="#50555B"/>
<path d="M52.5625 204.672C53.401 204.661 54.1797 204.625 54.8984 204.562C55.6224 204.495 56.375 204.38 57.1562 204.219L57.3281 205.281C56.4635 205.464 55.6328 205.589 54.8359 205.656C54.0443 205.719 53.1719 205.75 52.2188 205.75H51.3438V196.891H52.5625V204.672ZM62.5469 209.266H61.375V195.375H62.5469V209.266ZM59.5781 208.562H58.4062V201.078H55.2344V200.062H58.4062V195.719H59.5781V208.562ZM75.7344 203.891H66.125V196.578H75.5781V197.609H67.375V199.672H75.2812V200.656H67.375V202.891H75.7344V203.891ZM77.2031 207.453H64.4844V206.438H77.2031V207.453ZM89.8125 209.281H88.5625V205.828H85.3594V204.891H88.5625V195.391H89.8125V209.281ZM78.25 202.703C80.0938 202.703 81.7552 202.677 83.2344 202.625C84.7135 202.568 86.1302 202.443 87.4844 202.25L87.5625 203.172C86.2969 203.385 84.901 203.536 83.375 203.625V208.844H82.1406V203.688C81.125 203.729 79.8854 203.75 78.4219 203.75L78.25 202.703ZM82.8281 196.078C83.5104 196.078 84.1146 196.193 84.6406 196.422C85.1719 196.651 85.5859 196.974 85.8828 197.391C86.1797 197.802 86.3281 198.276 86.3281 198.812C86.3281 199.354 86.1797 199.831 85.8828 200.242C85.5911 200.654 85.1797 200.971 84.6484 201.195C84.1172 201.419 83.5104 201.531 82.8281 201.531C82.1406 201.531 81.5312 201.419 81 201.195C80.4688 200.971 80.0547 200.654 79.7578 200.242C79.4609 199.831 79.3125 199.354 79.3125 198.812C79.3125 198.276 79.4609 197.802 79.7578 197.391C80.0547 196.974 80.4688 196.651 81 196.422C81.5312 196.193 82.1406 196.078 82.8281 196.078ZM82.8281 197.031C82.3646 197.031 81.9531 197.107 81.5938 197.258C81.2344 197.409 80.9557 197.62 80.7578 197.891C80.5599 198.161 80.4635 198.469 80.4688 198.812C80.4635 199.161 80.5599 199.471 80.7578 199.742C80.9557 200.008 81.2344 200.214 81.5938 200.359C81.9531 200.505 82.3646 200.578 82.8281 200.578C83.276 200.578 83.6771 200.505 84.0312 200.359C84.3906 200.214 84.6693 200.008 84.8672 199.742C85.0703 199.471 85.1719 199.161 85.1719 198.812C85.1719 198.469 85.0703 198.161 84.8672 197.891C84.6693 197.62 84.3906 197.409 84.0312 197.258C83.6771 197.107 83.276 197.031 82.8281 197.031ZM103.219 198.516C103.219 199.411 103.208 200.164 103.188 200.773C103.172 201.383 103.122 202.065 103.039 202.82C102.956 203.57 102.823 204.385 102.641 205.266L101.406 205.156C101.682 203.953 101.862 202.763 101.945 201.586L93.4688 202.047L93.2969 201.031L101.992 200.672C102.003 200.38 102.01 200.091 102.016 199.805C102.021 199.513 102.026 199.224 102.031 198.938V198.516V197.828H93.6719V196.797H103.219V198.516ZM104.797 207.312H92.1406V206.281H104.797V207.312ZM122.688 203.5H117.031V206.344H115.812V203.5H109.969V202.484H122.688V203.5ZM121.031 200.891H111.625V196.062H121.031V200.891ZM112.828 199.906H119.812V197.031H112.828V199.906ZM121.266 208.969H111.594V204.969H112.828V207.938H121.266V208.969ZM135.688 209.266H134.516V195.375H135.688V209.266ZM132.875 208.547H131.719V201.391H129.375V200.391H131.719V195.719H132.875V208.547ZM127.891 199.344C127.891 200.151 128.008 200.94 128.242 201.711C128.477 202.477 128.82 203.169 129.273 203.789C129.727 204.404 130.266 204.891 130.891 205.25L130.141 206.156C129.469 205.755 128.893 205.201 128.414 204.492C127.935 203.779 127.57 202.971 127.32 202.07C127.065 203.044 126.688 203.917 126.188 204.688C125.693 205.458 125.104 206.057 124.422 206.484L123.641 205.562C124.271 205.188 124.818 204.674 125.281 204.023C125.745 203.372 126.096 202.643 126.336 201.836C126.581 201.023 126.703 200.193 126.703 199.344V198.031H124.031V197.016H130.438V198.031H127.891V199.344ZM150.359 207.547H137.641V206.516H143.359V203.891H139.234V199.609H147.547V197.422H139.203V196.406H148.75V200.609H140.453V202.875H149.078V203.891H144.562V206.516H150.359V207.547ZM55.1953 228.297H53.9609V214.375H55.1953V228.297ZM47.8047 215.453C48.4922 215.458 49.1042 215.661 49.6406 216.062C50.1771 216.458 50.5964 217.021 50.8984 217.75C51.2005 218.479 51.3516 219.328 51.3516 220.297C51.3516 221.266 51.2005 222.115 50.8984 222.844C50.5964 223.573 50.1771 224.135 49.6406 224.531C49.1042 224.927 48.4922 225.125 47.8047 225.125C47.1172 225.125 46.5026 224.927 45.9609 224.531C45.4245 224.135 45.0052 223.573 44.7031 222.844C44.4062 222.115 44.2578 221.266 44.2578 220.297C44.2578 219.328 44.4062 218.479 44.7031 217.75C45.0052 217.021 45.4245 216.458 45.9609 216.062C46.4974 215.661 47.112 215.458 47.8047 215.453ZM47.8047 216.547C47.3411 216.552 46.9297 216.711 46.5703 217.023C46.2161 217.331 45.9401 217.768 45.7422 218.336C45.5443 218.898 45.4453 219.552 45.4453 220.297C45.4453 221.042 45.5443 221.698 45.7422 222.266C45.9401 222.828 46.2188 223.263 46.5781 223.57C46.9375 223.878 47.3464 224.031 47.8047 224.031C48.263 224.031 48.6719 223.878 49.0312 223.57C49.3906 223.263 49.6693 222.828 49.8672 222.266C50.0651 221.698 50.1641 221.042 50.1641 220.297C50.1641 219.552 50.0651 218.898 49.8672 218.336C49.6693 217.768 49.3906 217.331 49.0312 217.023C48.6771 216.711 48.2682 216.552 47.8047 216.547ZM64.8047 224.781H58.3828V215.75H64.8047V224.781ZM59.5859 223.781H63.6016V216.734H59.5859V223.781ZM69.0234 228.297H67.7891V214.375H69.0234V228.297ZM76.3672 218.641C76.3672 219.406 76.5365 220.169 76.875 220.93C77.2135 221.685 77.6693 222.359 78.2422 222.953C78.8203 223.542 79.4505 223.984 80.1328 224.281L79.4453 225.25C78.6276 224.875 77.8906 224.31 77.2344 223.555C76.5781 222.794 76.0885 221.938 75.7656 220.984C75.4427 222.005 74.9531 222.93 74.2969 223.758C73.6458 224.581 72.9245 225.193 72.1328 225.594L71.3984 224.625C72.0547 224.307 72.6667 223.828 73.2344 223.188C73.8073 222.547 74.2656 221.826 74.6094 221.023C74.9531 220.216 75.1276 219.422 75.1328 218.641V216.828H71.8516V215.812H79.6797V216.828H76.3672V218.641ZM82.8516 228.266H81.6172V214.375H82.8516V228.266ZM97.9297 221.797H85.2109V220.828H97.9297V221.797ZM96.3359 225.859H87.9922V227.188H96.7891V228.078H86.7578V225.016H95.1172V223.828H86.7422V222.906H96.3359V225.859ZM96.2891 217.672H88.0859V218.891H96.5391V219.781H86.8672V216.828H95.0547V215.688H86.8203V214.797H96.2891V217.672ZM115.789 226.547H103.07V225.516H108.789V222.891H104.664V218.609H112.977V216.422H104.633V215.406H114.18V219.609H105.883V221.875H114.508V222.891H109.992V225.516H115.789V226.547ZM128.117 222.078H118.523V215.672H127.977V216.688H119.742V221.062H128.117V222.078ZM129.617 226.375H116.898V225.344H129.617V226.375ZM141.477 220.109H143.805V221.125H141.477V228.266H140.258V214.375H141.477V220.109ZM138.914 217.625H130.648V216.609H134.227V214.547H135.445V216.609H138.914V217.625ZM134.852 218.781C135.503 218.781 136.086 218.917 136.602 219.188C137.117 219.458 137.521 219.836 137.812 220.32C138.104 220.805 138.253 221.354 138.258 221.969C138.253 222.583 138.104 223.133 137.812 223.617C137.521 224.102 137.117 224.479 136.602 224.75C136.086 225.021 135.503 225.156 134.852 225.156C134.195 225.156 133.607 225.021 133.086 224.75C132.57 224.479 132.167 224.102 131.875 223.617C131.583 223.133 131.44 222.583 131.445 221.969C131.44 221.354 131.583 220.805 131.875 220.32C132.167 219.836 132.57 219.458 133.086 219.188C133.607 218.917 134.195 218.781 134.852 218.781ZM134.852 219.812C134.424 219.812 134.039 219.906 133.695 220.094C133.357 220.276 133.091 220.531 132.898 220.859C132.706 221.188 132.612 221.557 132.617 221.969C132.612 222.385 132.706 222.758 132.898 223.086C133.091 223.409 133.357 223.661 133.695 223.844C134.039 224.026 134.424 224.115 134.852 224.109C135.273 224.115 135.654 224.026 135.992 223.844C136.331 223.661 136.596 223.409 136.789 223.086C136.982 222.758 137.081 222.385 137.086 221.969C137.081 221.557 136.982 221.188 136.789 220.859C136.596 220.531 136.331 220.276 135.992 220.094C135.654 219.906 135.273 219.812 134.852 219.812ZM149.523 218.641C149.523 219.406 149.693 220.169 150.031 220.93C150.37 221.685 150.826 222.359 151.398 222.953C151.977 223.542 152.607 223.984 153.289 224.281L152.602 225.25C151.784 224.875 151.047 224.31 150.391 223.555C149.734 222.794 149.245 221.938 148.922 220.984C148.599 222.005 148.109 222.93 147.453 223.758C146.802 224.581 146.081 225.193 145.289 225.594L144.555 224.625C145.211 224.307 145.823 223.828 146.391 223.188C146.964 222.547 147.422 221.826 147.766 221.023C148.109 220.216 148.284 219.422 148.289 218.641V216.828H145.008V215.812H152.836V216.828H149.523V218.641ZM156.008 228.266H154.773V214.375H156.008V228.266ZM75.5078 238.625H71.3984V240.266H77.1172V241.266H64.4609V240.266H70.1953V238.625H66.1016V233.969H75.5078V238.625ZM67.3047 237.625H74.2891V234.953H67.3047V237.625ZM71.3984 242.625C71.3984 243.219 71.6146 243.766 72.0469 244.266C72.4792 244.766 73.0573 245.185 73.7812 245.523C74.5052 245.857 75.2943 246.083 76.1484 246.203L75.6484 247.188C74.5495 247 73.5651 246.659 72.6953 246.164C71.8255 245.669 71.1901 245.055 70.7891 244.32C70.3828 245.055 69.7422 245.669 68.8672 246.164C67.9974 246.659 67.013 247 65.9141 247.188L65.4453 246.203C66.2943 246.083 67.0781 245.857 67.7969 245.523C68.5156 245.185 69.0885 244.766 69.5156 244.266C69.9479 243.766 70.1641 243.219 70.1641 242.625V242.141H71.3984V242.625ZM90.0859 242H88.9141V238.234H87.1016V241.781H85.9297V233.609H87.1016V237.219H88.9141V233.391H90.0859V242ZM85.3359 235.984H78.2109V234.969H81.1797V233.438H82.3984V234.969H85.3359V235.984ZM81.7891 236.688C82.3724 236.688 82.888 236.786 83.3359 236.984C83.7891 237.177 84.1406 237.453 84.3906 237.812C84.6406 238.167 84.7682 238.583 84.7734 239.062C84.7682 239.531 84.6406 239.945 84.3906 240.305C84.1406 240.664 83.7891 240.943 83.3359 241.141C82.888 241.339 82.3724 241.438 81.7891 241.438C81.2109 241.438 80.6953 241.339 80.2422 241.141C79.7891 240.943 79.4375 240.664 79.1875 240.305C78.9375 239.945 78.8151 239.531 78.8203 239.062C78.8151 238.589 78.9375 238.172 79.1875 237.812C79.4375 237.453 79.7865 237.177 80.2344 236.984C80.6875 236.786 81.2057 236.688 81.7891 236.688ZM81.7891 237.609C81.4193 237.609 81.0911 237.669 80.8047 237.789C80.5234 237.909 80.3047 238.078 80.1484 238.297C79.9922 238.516 79.9141 238.771 79.9141 239.062C79.9141 239.349 79.9922 239.604 80.1484 239.828C80.3099 240.047 80.5312 240.216 80.8125 240.336C81.099 240.456 81.4245 240.516 81.7891 240.516C82.1536 240.516 82.4766 240.456 82.7578 240.336C83.0443 240.216 83.2656 240.047 83.4219 239.828C83.5833 239.604 83.6641 239.349 83.6641 239.062C83.6641 238.771 83.5859 238.516 83.4297 238.297C83.2734 238.078 83.0521 237.909 82.7656 237.789C82.4844 237.669 82.1589 237.609 81.7891 237.609ZM83.2109 242.891C83.2005 243.505 83.362 244.096 83.6953 244.664C84.0339 245.227 84.5208 245.68 85.1562 246.023C85.5781 245.779 85.9375 245.477 86.2344 245.117C86.5365 244.758 86.7656 244.385 86.9219 244C87.0781 243.609 87.1589 243.24 87.1641 242.891V242.391H88.3672V242.891C88.362 243.344 88.4714 243.789 88.6953 244.227C88.9245 244.664 89.2526 245.055 89.6797 245.398C90.112 245.737 90.6172 245.995 91.1953 246.172L90.6172 247.109C89.9349 246.87 89.349 246.526 88.8594 246.078C88.3698 245.635 88 245.125 87.75 244.547C87.526 245.135 87.1953 245.667 86.7578 246.141C86.3255 246.615 85.7995 246.974 85.1797 247.219C84.5339 246.979 83.9922 246.63 83.5547 246.172C83.1224 245.719 82.7969 245.198 82.5781 244.609C82.3177 245.167 81.9453 245.664 81.4609 246.102C80.9818 246.539 80.4193 246.875 79.7734 247.109L79.1797 246.172C79.7422 245.979 80.237 245.706 80.6641 245.352C81.0964 244.997 81.4271 244.604 81.6562 244.172C81.8906 243.74 82.0078 243.312 82.0078 242.891V242.391H83.2109V242.891ZM94.9453 243.344H101.883V241.719H103.117V247.078H93.7266V241.719H94.9453V243.344ZM101.883 246.094V244.312H94.9453V246.094H101.883ZM104.773 240.734H92.1172V239.719H104.773V240.734ZM99.0859 234.188C99.0859 234.74 99.3255 235.271 99.8047 235.781C100.284 236.286 100.906 236.716 101.672 237.07C102.443 237.419 103.237 237.646 104.055 237.75L103.602 238.734C102.878 238.625 102.174 238.435 101.492 238.164C100.815 237.888 100.211 237.544 99.6797 237.133C99.1484 236.721 98.7396 236.263 98.4531 235.758C98.1667 236.263 97.7552 236.721 97.2188 237.133C96.6875 237.544 96.0833 237.888 95.4062 238.164C94.7292 238.435 94.0286 238.625 93.3047 238.734L92.8359 237.75C93.6693 237.641 94.4688 237.414 95.2344 237.07C96.0052 236.721 96.6276 236.297 97.1016 235.797C97.5807 235.292 97.8203 234.755 97.8203 234.188V233.531H99.0859V234.188ZM117.398 247.266H116.18V233.375H117.398V247.266ZM108.055 242.625C110.404 242.615 112.617 242.391 114.695 241.953L114.867 243C113.685 243.245 112.534 243.422 111.414 243.531C110.294 243.635 109.148 243.688 107.977 243.688H106.852V234.75H108.055V242.625ZM130.523 238.875H132.852V239.906H130.523V247.297H129.305V233.375H130.523V238.875ZM126.867 235.75H121.602V242.781C122.898 242.781 124.031 242.745 125 242.672C125.969 242.599 126.956 242.469 127.961 242.281L128.117 243.344C127.091 243.531 126.083 243.656 125.094 243.719C124.104 243.781 122.898 243.812 121.477 243.812H120.383V234.734H126.867V235.75ZM135.07 246.094C134.888 246.094 134.719 246.049 134.562 245.961C134.411 245.867 134.289 245.742 134.195 245.586C134.107 245.43 134.065 245.26 134.07 245.078C134.065 244.901 134.107 244.737 134.195 244.586C134.289 244.43 134.411 244.307 134.562 244.219C134.719 244.125 134.888 244.078 135.07 244.078C135.247 244.078 135.411 244.125 135.562 244.219C135.719 244.307 135.841 244.43 135.93 244.586C136.023 244.737 136.07 244.901 136.07 245.078C136.07 245.26 136.023 245.43 135.93 245.586C135.841 245.742 135.719 245.867 135.562 245.961C135.411 246.049 135.247 246.094 135.07 246.094Z" fill="#A9A9A9"/>
<path d="M77.7051 105.872C87.4329 88.6239 92.2969 80 99.9993 80C107.702 80 112.566 88.6239 122.294 105.872L123.506 108.021C131.59 122.354 135.632 129.52 131.978 134.76C128.325 140 119.287 140 101.212 140H98.7871C80.7112 140 71.6733 140 68.0202 134.76C64.3672 129.52 68.4091 122.354 76.4929 108.021L77.7051 105.872Z" stroke="#A9A9A9" stroke-width="5"/>
<path d="M100 96.667V113.334" stroke="#A9A9A9" stroke-width="5" stroke-linecap="round"/>
<circle cx="99.9994" cy="123.333" r="3.33333" fill="#A9A9A9"/>
</g>
<defs>
<clipPath id="clip0_305_2229">
<rect width="200" height="300" fill="white"/>
</clipPath>
</defs>
</svg>
