<svg width="200" height="300" viewBox="0 0 200 300" fill="none" xmlns="http://www.w3.org/2000/svg">
<rect width="200" height="300" rx="8" fill="#C7C7C7"/>
<path d="M100 87.6251C92.2124 87.6251 84.5996 89.9344 78.1244 94.2609C71.6493 98.5875 66.6025 104.737 63.6223 111.932C60.6421 119.127 59.8623 127.044 61.3816 134.682C62.9009 142.32 66.651 149.336 72.1577 154.842C77.6644 160.349 84.6803 164.099 92.3183 165.618C99.9563 167.138 107.873 166.358 115.068 163.378C122.263 160.398 128.413 155.351 132.739 148.876C137.066 142.4 139.375 134.788 139.375 127C139.375 116.557 135.227 106.542 127.842 99.1577C120.458 91.7735 110.443 87.6251 100 87.6251ZM100 160.75C93.3249 160.75 86.7997 158.771 81.2495 155.062C75.6994 151.354 71.3735 146.083 68.8191 139.916C66.2646 133.749 65.5963 126.963 66.8985 120.416C68.2008 113.869 71.4151 107.855 76.1352 103.135C80.8552 98.4152 86.8689 95.2008 93.4157 93.8986C99.9626 92.5963 106.749 93.2647 112.916 95.8191C119.083 98.3736 124.354 102.699 128.062 108.25C131.771 113.8 133.75 120.325 133.75 127C133.75 135.951 130.194 144.536 123.865 150.865C117.536 157.194 108.951 160.75 100 160.75Z" fill="#919191"/>
<path d="M97.1875 104.5H102.812V135.438H97.1875V104.5Z" fill="#919191"/>
<path d="M100 143.875C99.1656 143.875 98.35 144.122 97.6562 144.586C96.9624 145.05 96.4217 145.708 96.1024 146.479C95.7831 147.25 95.6995 148.098 95.8623 148.917C96.0251 149.735 96.4269 150.487 97.0169 151.077C97.6069 151.667 98.3586 152.069 99.177 152.231C99.9953 152.394 100.844 152.311 101.614 151.991C102.385 151.672 103.044 151.131 103.508 150.438C103.971 149.744 104.219 148.928 104.219 148.094C104.219 146.975 103.774 145.902 102.983 145.111C102.192 144.319 101.119 143.875 100 143.875Z" fill="#919191"/>
<path d="M45.2687 192.254H47.1307V205.26H45.2687V192.254ZM40.1447 193.164C40.8074 193.164 41.3954 193.355 41.9087 193.738C42.422 194.111 42.8234 194.648 43.1127 195.348C43.4114 196.039 43.5607 196.855 43.5607 197.798C43.5607 198.75 43.4114 199.576 43.1127 200.276C42.8234 200.967 42.422 201.503 41.9087 201.886C41.3954 202.259 40.8074 202.446 40.1447 202.446C39.4914 202.446 38.908 202.259 38.3947 201.886C37.8814 201.503 37.4754 200.967 37.1767 200.276C36.8874 199.576 36.7427 198.75 36.7427 197.798C36.7427 196.855 36.8874 196.039 37.1767 195.348C37.4754 194.648 37.8814 194.111 38.3947 193.738C38.908 193.355 39.4914 193.164 40.1447 193.164ZM40.1447 194.858C39.8274 194.858 39.5474 194.97 39.3047 195.194C39.062 195.418 38.8707 195.749 38.7307 196.188C38.6 196.617 38.5347 197.154 38.5347 197.798C38.5347 198.433 38.6 198.974 38.7307 199.422C38.8707 199.861 39.062 200.192 39.3047 200.416C39.5474 200.64 39.8274 200.752 40.1447 200.752C40.4714 200.752 40.756 200.64 40.9987 200.416C41.2414 200.192 41.428 199.861 41.5587 199.422C41.6987 198.974 41.7687 198.433 41.7687 197.798C41.7687 197.154 41.6987 196.617 41.5587 196.188C41.428 195.749 41.2414 195.418 40.9987 195.194C40.756 194.97 40.4714 194.858 40.1447 194.858ZM49.8876 193.43H56.1176V202.152H49.8876V193.43ZM54.2976 194.9H51.7216V200.682H54.2976V194.9ZM58.1476 192.254H60.0096V205.26H58.1476V192.254ZM65.2585 194.326H66.7425V195.782C66.7425 196.529 66.6632 197.261 66.5045 197.98C66.3552 198.699 66.1265 199.375 65.8185 200.01C65.5198 200.635 65.1418 201.191 64.6845 201.676C64.2272 202.152 63.6952 202.53 63.0885 202.81L62.0245 201.34C62.5658 201.088 63.0372 200.761 63.4385 200.36C63.8492 199.959 64.1852 199.511 64.4465 199.016C64.7172 198.512 64.9178 197.985 65.0485 197.434C65.1885 196.874 65.2585 196.323 65.2585 195.782V194.326ZM65.6645 194.326H67.1345V195.782C67.1345 196.295 67.1998 196.818 67.3305 197.35C67.4705 197.873 67.6712 198.372 67.9325 198.848C68.1938 199.315 68.5252 199.735 68.9265 200.108C69.3278 200.481 69.8038 200.78 70.3545 201.004L69.3325 202.488C68.7165 202.217 68.1798 201.853 67.7225 201.396C67.2652 200.939 66.8825 200.411 66.5745 199.814C66.2665 199.217 66.0378 198.577 65.8885 197.896C65.7392 197.205 65.6645 196.501 65.6645 195.782V194.326ZM62.5425 193.514H69.8225V195.054H62.5425V193.514ZM71.0265 192.282H72.8885V205.246H71.0265V192.282ZM75.0154 198.092H86.7474V199.436H75.0154V198.092ZM76.3314 200.094H85.3614V203.174H78.1934V204.28H76.3454V201.998H83.5274V201.354H76.3314V200.094ZM76.3454 203.874H85.7254V205.134H76.3454V203.874ZM76.4434 192.492H85.3194V195.558H78.3054V196.608H76.4714V194.382H83.4854V193.752H76.4434V192.492ZM76.4714 196.23H85.5574V197.49H76.4714V196.23ZM96.0485 198.54H97.8965V200.346H96.0485V198.54ZM92.6185 192.464H94.4525V193.318H99.5205V192.464H101.369V196.818H92.6185V192.464ZM94.4525 194.676V195.432H99.5205V194.676H94.4525ZM91.1205 197.49H102.853V198.96H91.1205V197.49ZM92.4645 199.758H101.425V203.062H94.3265V204.238H92.4785V201.774H99.5905V201.116H92.4645V199.758ZM92.4785 203.762H101.775V205.162H92.4785V203.762ZM113.001 192.254H114.849V205.26H113.001V192.254ZM110.971 196.93H113.379V198.428H110.971V196.93ZM104.447 200.738H105.511C106.221 200.738 106.883 200.729 107.499 200.71C108.125 200.691 108.736 200.659 109.333 200.612C109.931 200.556 110.542 200.477 111.167 200.374L111.335 201.886C110.691 201.989 110.061 202.068 109.445 202.124C108.829 202.18 108.199 202.217 107.555 202.236C106.921 202.255 106.239 202.264 105.511 202.264H104.447V200.738ZM104.433 193.36H110.271V198.246H106.295V201.186H104.447V196.776H108.437V194.844H104.433V193.36ZM121.82 199.562H123.668V202.516H121.82V199.562ZM122.744 192.94C123.668 192.94 124.494 193.089 125.222 193.388C125.96 193.677 126.538 194.088 126.958 194.62C127.378 195.152 127.588 195.782 127.588 196.51C127.588 197.229 127.378 197.859 126.958 198.4C126.538 198.941 125.96 199.361 125.222 199.66C124.494 199.949 123.668 200.094 122.744 200.094C121.83 200.094 121.004 199.949 120.266 199.66C119.538 199.361 118.96 198.941 118.53 198.4C118.11 197.859 117.9 197.229 117.9 196.51C117.9 195.782 118.11 195.152 118.53 194.62C118.96 194.088 119.538 193.677 120.266 193.388C121.004 193.089 121.83 192.94 122.744 192.94ZM122.744 194.41C122.156 194.41 121.634 194.494 121.176 194.662C120.728 194.83 120.374 195.068 120.112 195.376C119.86 195.684 119.734 196.062 119.734 196.51C119.734 196.949 119.86 197.327 120.112 197.644C120.374 197.952 120.728 198.19 121.176 198.358C121.634 198.526 122.156 198.61 122.744 198.61C123.342 198.61 123.864 198.526 124.312 198.358C124.77 198.19 125.124 197.952 125.376 197.644C125.628 197.327 125.754 196.949 125.754 196.51C125.754 196.062 125.628 195.684 125.376 195.376C125.124 195.068 124.77 194.83 124.312 194.662C123.864 194.494 123.342 194.41 122.744 194.41ZM116.892 202.222H128.638V203.734H116.892V202.222ZM131.213 195.768H140.201V197.252H131.213V195.768ZM129.771 198.596H141.503V200.08H129.771V198.596ZM131.213 192.73H133.075V196.51H131.213V192.73ZM131.101 203.468H140.271V204.966H131.101V203.468ZM131.101 201.102H132.963V203.874H131.101V201.102ZM150.818 198.792H152.666V201.074H150.818V198.792ZM145.876 198.162H157.608V199.646H145.876V198.162ZM151.714 200.556C153.114 200.556 154.216 200.761 155.018 201.172C155.821 201.573 156.222 202.152 156.222 202.908C156.222 203.645 155.821 204.219 155.018 204.63C154.216 205.041 153.114 205.246 151.714 205.246C150.314 205.246 149.213 205.041 148.41 204.63C147.617 204.219 147.22 203.645 147.22 202.908C147.22 202.152 147.617 201.573 148.41 201.172C149.213 200.761 150.314 200.556 151.714 200.556ZM151.714 201.97C151.136 201.97 150.65 202.003 150.258 202.068C149.876 202.133 149.586 202.236 149.39 202.376C149.194 202.507 149.096 202.684 149.096 202.908C149.096 203.113 149.194 203.286 149.39 203.426C149.586 203.566 149.876 203.669 150.258 203.734C150.65 203.799 151.136 203.832 151.714 203.832C152.293 203.832 152.774 203.799 153.156 203.734C153.548 203.669 153.842 203.566 154.038 203.426C154.234 203.286 154.332 203.113 154.332 202.908C154.332 202.684 154.234 202.507 154.038 202.376C153.842 202.236 153.548 202.133 153.156 202.068C152.774 202.003 152.293 201.97 151.714 201.97ZM150.468 193.5H152.12V193.808C152.12 194.2 152.05 194.573 151.91 194.928C151.77 195.283 151.56 195.614 151.28 195.922C151.01 196.221 150.669 196.491 150.258 196.734C149.848 196.977 149.372 197.177 148.83 197.336C148.289 197.495 147.687 197.607 147.024 197.672L146.38 196.202C146.95 196.155 147.454 196.076 147.892 195.964C148.34 195.852 148.723 195.717 149.04 195.558C149.367 195.39 149.633 195.213 149.838 195.026C150.053 194.83 150.212 194.629 150.314 194.424C150.417 194.219 150.468 194.013 150.468 193.808V193.5ZM151.378 193.5H153.016V193.808C153.016 194.013 153.068 194.223 153.17 194.438C153.273 194.643 153.427 194.839 153.632 195.026C153.847 195.213 154.113 195.39 154.43 195.558C154.757 195.717 155.14 195.852 155.578 195.964C156.026 196.076 156.535 196.155 157.104 196.202L156.46 197.672C155.798 197.607 155.196 197.495 154.654 197.336C154.113 197.177 153.637 196.981 153.226 196.748C152.825 196.505 152.484 196.235 152.204 195.936C151.934 195.628 151.728 195.297 151.588 194.942C151.448 194.578 151.378 194.2 151.378 193.808V193.5ZM146.954 192.814H156.558V194.284H146.954V192.814ZM41.0938 215.042H43.2218V216.54H41.0938V215.042ZM45.2658 210.268H47.0438V223.232H45.2658V210.268ZM42.6338 210.478H44.3698V222.658H42.6338V210.478ZM38.8258 211.178C39.3952 211.178 39.8898 211.369 40.3098 211.752C40.7392 212.125 41.0658 212.667 41.2898 213.376C41.5232 214.076 41.6398 214.916 41.6398 215.896C41.6398 216.867 41.5232 217.707 41.2898 218.416C41.0658 219.125 40.7392 219.671 40.3098 220.054C39.8898 220.427 39.3905 220.614 38.8118 220.614C38.2518 220.614 37.7572 220.427 37.3278 220.054C36.9078 219.671 36.5812 219.125 36.3478 218.416C36.1238 217.707 36.0118 216.867 36.0118 215.896C36.0118 214.916 36.1238 214.076 36.3478 213.376C36.5812 212.667 36.9078 212.125 37.3278 211.752C37.7572 211.369 38.2565 211.178 38.8258 211.178ZM38.8258 212.942C38.5925 212.942 38.3918 213.049 38.2238 213.264C38.0558 213.479 37.9252 213.805 37.8318 214.244C37.7478 214.673 37.7058 215.224 37.7058 215.896C37.7058 216.549 37.7478 217.095 37.8318 217.534C37.9252 217.973 38.0558 218.304 38.2238 218.528C38.3918 218.743 38.5925 218.85 38.8258 218.85C39.0592 218.85 39.2598 218.743 39.4278 218.528C39.6052 218.304 39.7358 217.973 39.8198 217.534C39.9038 217.095 39.9458 216.549 39.9458 215.896C39.9458 215.224 39.9038 214.673 39.8198 214.244C39.7358 213.805 39.6052 213.479 39.4278 213.264C39.2598 213.049 39.0592 212.942 38.8258 212.942ZM57.7808 210.254H59.6288V223.26H57.7808V210.254ZM55.7508 214.93H58.1588V216.428H55.7508V214.93ZM49.2268 218.738H50.2908C51.0001 218.738 51.6628 218.729 52.2788 218.71C52.9041 218.691 53.5154 218.659 54.1128 218.612C54.7101 218.556 55.3214 218.477 55.9468 218.374L56.1148 219.886C55.4708 219.989 54.8408 220.068 54.2248 220.124C53.6088 220.18 52.9788 220.217 52.3347 220.236C51.7001 220.255 51.0188 220.264 50.2908 220.264H49.2268V218.738ZM49.2128 211.36H55.0508V216.246H51.0748V219.186H49.2268V214.776H53.2168V212.844H49.2128V211.36ZM69.9457 210.254H71.8217V223.218H69.9457V210.254ZM71.3457 215.224H73.6277V216.75H71.3457V215.224ZM66.5437 211.598H68.3777C68.3777 212.895 68.191 214.123 67.8177 215.28C67.4537 216.437 66.847 217.501 65.9977 218.472C65.1577 219.433 64.019 220.273 62.5817 220.992L61.5317 219.578C62.6703 218.99 63.6083 218.327 64.3457 217.59C65.0923 216.853 65.643 216.017 65.9977 215.084C66.3617 214.141 66.5437 213.091 66.5437 211.934V211.598ZM62.2457 211.598H67.5097V213.096H62.2457V211.598ZM78.1548 210.842H80.0028V212.382H82.5508V210.842H84.3848V216.512H78.1548V210.842ZM80.0028 213.768V215.07H82.5508V213.768H80.0028ZM86.1208 210.282H87.9828V216.862H86.1208V210.282ZM87.2408 212.76H89.6908V214.286H87.2408V212.76ZM79.4288 217.352H87.9828V220.894H81.2908V222.42H79.4428V219.564H86.1488V218.78H79.4288V217.352ZM79.4428 221.706H88.3608V223.162H79.4428V221.706ZM92.9937 211.052H94.4497V212.55C94.4497 213.287 94.347 214.006 94.1417 214.706C93.9364 215.397 93.6144 216.017 93.1757 216.568C92.737 217.119 92.163 217.543 91.4537 217.842L90.4877 216.414C91.085 216.143 91.5657 215.803 91.9297 215.392C92.303 214.972 92.5737 214.515 92.7417 214.02C92.9097 213.525 92.9937 213.035 92.9937 212.55V211.052ZM93.3437 211.052H94.7997V212.55C94.7997 213.017 94.879 213.474 95.0377 213.922C95.1964 214.361 95.453 214.762 95.8077 215.126C96.1717 215.49 96.6337 215.789 97.1937 216.022L96.2137 217.436C95.5417 217.165 94.991 216.783 94.5617 216.288C94.1417 215.784 93.8337 215.215 93.6377 214.58C93.4417 213.936 93.3437 213.259 93.3437 212.55V211.052ZM99.9377 210.282H101.716V218.206H99.9377V210.282ZM98.3837 213.432H100.442V214.93H98.3837V213.432ZM97.2077 210.52H98.9437V217.8H97.2077V210.52ZM97.3197 218.388C98.225 218.388 99.009 218.486 99.6717 218.682C100.344 218.869 100.862 219.144 101.226 219.508C101.59 219.872 101.772 220.306 101.772 220.81C101.772 221.323 101.59 221.762 101.226 222.126C100.862 222.49 100.344 222.765 99.6717 222.952C99.009 223.148 98.225 223.246 97.3197 223.246C96.4144 223.246 95.6257 223.148 94.9537 222.952C94.2817 222.765 93.7637 222.49 93.3997 222.126C93.0357 221.762 92.8537 221.323 92.8537 220.81C92.8537 220.306 93.0357 219.872 93.3997 219.508C93.7637 219.144 94.2817 218.869 94.9537 218.682C95.6257 218.486 96.4144 218.388 97.3197 218.388ZM97.3197 219.788C96.4797 219.788 95.831 219.872 95.3737 220.04C94.9257 220.208 94.7017 220.465 94.7017 220.81C94.7017 221.155 94.9257 221.417 95.3737 221.594C95.831 221.762 96.4797 221.846 97.3197 221.846C97.8704 221.846 98.337 221.809 98.7197 221.734C99.1117 221.65 99.4057 221.533 99.6017 221.384C99.807 221.235 99.9097 221.043 99.9097 220.81C99.9097 220.465 99.6857 220.208 99.2377 220.04C98.7897 219.872 98.1504 219.788 97.3197 219.788ZM112.817 210.282H114.595V218.262H112.817V210.282ZM111.249 213.6H113.307V215.098H111.249V213.6ZM110.143 210.45H111.879V218.122H110.143V210.45ZM103.479 211.528H109.779V212.956H103.479V211.528ZM106.643 213.362C107.193 213.362 107.679 213.46 108.099 213.656C108.519 213.843 108.845 214.109 109.079 214.454C109.321 214.79 109.443 215.182 109.443 215.63C109.443 216.069 109.321 216.461 109.079 216.806C108.845 217.142 108.519 217.408 108.099 217.604C107.679 217.791 107.193 217.884 106.643 217.884C106.111 217.884 105.63 217.791 105.201 217.604C104.781 217.408 104.449 217.142 104.207 216.806C103.964 216.461 103.843 216.069 103.843 215.63C103.843 215.182 103.964 214.79 104.207 214.454C104.449 214.109 104.781 213.843 105.201 213.656C105.63 213.46 106.111 213.362 106.643 213.362ZM106.643 214.692C106.307 214.692 106.031 214.771 105.817 214.93C105.611 215.089 105.509 215.322 105.509 215.63C105.509 215.929 105.611 216.162 105.817 216.33C106.031 216.489 106.307 216.568 106.643 216.568C106.979 216.568 107.254 216.489 107.469 216.33C107.683 216.162 107.791 215.929 107.791 215.63C107.791 215.322 107.683 215.089 107.469 214.93C107.254 214.771 106.979 214.692 106.643 214.692ZM105.719 210.366H107.553V212.536H105.719V210.366ZM106.671 218.668H108.071V218.92C108.071 219.527 107.963 220.11 107.749 220.67C107.543 221.221 107.226 221.706 106.797 222.126C106.367 222.546 105.812 222.863 105.131 223.078L104.263 221.72C104.832 221.552 105.289 221.323 105.635 221.034C105.989 220.735 106.251 220.404 106.419 220.04C106.587 219.676 106.671 219.303 106.671 218.92V218.668ZM107.147 218.668H108.477V218.92C108.477 219.303 108.551 219.685 108.701 220.068C108.85 220.441 109.083 220.782 109.401 221.09C109.718 221.398 110.133 221.65 110.647 221.846L109.919 223.204C109.247 222.971 108.705 222.63 108.295 222.182C107.893 221.734 107.599 221.23 107.413 220.67C107.235 220.101 107.147 219.517 107.147 218.92V218.668ZM111.347 218.668H112.677V218.92C112.677 219.471 112.583 220.035 112.397 220.614C112.21 221.183 111.916 221.697 111.515 222.154C111.113 222.611 110.581 222.961 109.919 223.204L109.177 221.846C109.69 221.631 110.105 221.365 110.423 221.048C110.74 220.721 110.973 220.371 111.123 219.998C111.272 219.625 111.347 219.265 111.347 218.92V218.668ZM111.795 218.668H113.181V218.92C113.181 219.321 113.265 219.709 113.433 220.082C113.601 220.455 113.862 220.787 114.217 221.076C114.581 221.356 115.043 221.571 115.603 221.72L114.721 223.078C114.039 222.863 113.484 222.551 113.055 222.14C112.625 221.739 112.308 221.263 112.103 220.712C111.897 220.161 111.795 219.564 111.795 218.92V218.668ZM117.786 218.038H119.634V219.13H124.828V218.038H126.662V223.106H117.786V218.038ZM119.634 220.53V221.65H124.828V220.53H119.634ZM116.414 215.938H128.146V217.394H116.414V215.938ZM121.328 210.408H122.924V210.8C122.924 211.257 122.844 211.691 122.686 212.102C122.536 212.513 122.317 212.895 122.028 213.25C121.738 213.605 121.379 213.927 120.95 214.216C120.53 214.496 120.044 214.734 119.494 214.93C118.943 215.117 118.332 215.257 117.66 215.35L116.988 213.908C117.576 213.843 118.103 213.735 118.57 213.586C119.036 213.437 119.442 213.259 119.788 213.054C120.133 212.839 120.418 212.611 120.642 212.368C120.875 212.116 121.048 211.859 121.16 211.598C121.272 211.327 121.328 211.061 121.328 210.8V210.408ZM121.636 210.408H123.232V210.8C123.232 211.061 123.288 211.327 123.4 211.598C123.512 211.859 123.68 212.116 123.904 212.368C124.137 212.611 124.426 212.839 124.772 213.054C125.117 213.259 125.523 213.437 125.99 213.586C126.466 213.735 126.993 213.843 127.572 213.908L126.9 215.35C126.228 215.257 125.616 215.117 125.066 214.93C124.524 214.734 124.039 214.496 123.61 214.216C123.18 213.927 122.821 213.605 122.532 213.25C122.242 212.895 122.018 212.513 121.86 212.102C121.71 211.682 121.636 211.248 121.636 210.8V210.408ZM138.28 210.268H140.128V223.232H138.28V210.268ZM129.978 211.5H131.84V219.564H129.978V211.5ZM129.978 218.458H131.126C132.078 218.458 133.072 218.421 134.108 218.346C135.144 218.262 136.199 218.113 137.272 217.898L137.468 219.452C136.367 219.685 135.28 219.844 134.206 219.928C133.142 220.003 132.116 220.04 131.126 220.04H129.978V218.458ZM150.459 210.254H152.335V223.26H150.459V210.254ZM151.929 215.056H154.211V216.596H151.929V215.056ZM142.675 218.612H143.767C144.505 218.612 145.195 218.603 145.839 218.584C146.483 218.556 147.109 218.514 147.715 218.458C148.322 218.393 148.943 218.304 149.577 218.192L149.759 219.732C149.106 219.844 148.462 219.933 147.827 219.998C147.202 220.063 146.558 220.105 145.895 220.124C145.233 220.143 144.523 220.152 143.767 220.152H142.675V218.612ZM142.675 211.458H148.723V212.956H144.537V219.34H142.675V211.458ZM156.573 222.129C156.245 222.129 155.963 222.013 155.728 221.781C155.496 221.546 155.38 221.264 155.38 220.936C155.38 220.611 155.496 220.333 155.728 220.101C155.963 219.869 156.245 219.753 156.573 219.753C156.892 219.753 157.17 219.869 157.409 220.101C157.647 220.333 157.767 220.611 157.767 220.936C157.767 221.155 157.71 221.355 157.597 221.538C157.488 221.717 157.344 221.861 157.165 221.97C156.986 222.076 156.789 222.129 156.573 222.129Z" fill="white"/>
</svg>
