<svg width="200" height="300" viewBox="0 0 200 300" fill="none" xmlns="http://www.w3.org/2000/svg">
<g clip-path="url(#clip0_305_2241)">
<path d="M200 0H0V300H200V0Z" fill="#50555B"/>
<path d="M39.0156 227.297H37.7812V213.375H39.0156V227.297ZM31.625 214.453C32.3125 214.458 32.9245 214.661 33.4609 215.062C33.9974 215.458 34.4167 216.021 34.7188 216.75C35.0208 217.479 35.1719 218.328 35.1719 219.297C35.1719 220.266 35.0208 221.115 34.7188 221.844C34.4167 222.573 33.9974 223.135 33.4609 223.531C32.9245 223.927 32.3125 224.125 31.625 224.125C30.9375 224.125 30.3229 223.927 29.7812 223.531C29.2448 223.135 28.8255 222.573 28.5234 221.844C28.2266 221.115 28.0781 220.266 28.0781 219.297C28.0781 218.328 28.2266 217.479 28.5234 216.75C28.8255 216.021 29.2448 215.458 29.7812 215.062C30.3177 214.661 30.9323 214.458 31.625 214.453ZM31.625 215.547C31.1615 215.552 30.75 215.711 30.3906 216.023C30.0365 216.331 29.7604 216.768 29.5625 217.336C29.3646 217.898 29.2656 218.552 29.2656 219.297C29.2656 220.042 29.3646 220.698 29.5625 221.266C29.7604 221.828 30.0391 222.263 30.3984 222.57C30.7578 222.878 31.1667 223.031 31.625 223.031C32.0833 223.031 32.4922 222.878 32.8516 222.57C33.2109 222.263 33.4896 221.828 33.6875 221.266C33.8854 220.698 33.9844 220.042 33.9844 219.297C33.9844 218.552 33.8854 217.898 33.6875 217.336C33.4896 216.768 33.2109 216.331 32.8516 216.023C32.4974 215.711 32.0885 215.552 31.625 215.547ZM48.625 223.781H42.2031V214.75H48.625V223.781ZM43.4062 222.781H47.4219V215.734H43.4062V222.781ZM52.8438 227.297H51.6094V213.375H52.8438V227.297ZM60.1875 217.641C60.1875 218.406 60.3568 219.169 60.6953 219.93C61.0339 220.685 61.4896 221.359 62.0625 221.953C62.6406 222.542 63.2708 222.984 63.9531 223.281L63.2656 224.25C62.4479 223.875 61.7109 223.31 61.0547 222.555C60.3984 221.794 59.9089 220.938 59.5859 219.984C59.263 221.005 58.7734 221.93 58.1172 222.758C57.4661 223.581 56.7448 224.193 55.9531 224.594L55.2188 223.625C55.875 223.307 56.487 222.828 57.0547 222.188C57.6276 221.547 58.0859 220.826 58.4297 220.023C58.7734 219.216 58.9479 218.422 58.9531 217.641V215.828H55.6719V214.812H63.5V215.828H60.1875V217.641ZM66.6719 227.266H65.4375V213.375H66.6719V227.266ZM81.75 220.797H69.0312V219.828H81.75V220.797ZM80.1562 224.859H71.8125V226.188H80.6094V227.078H70.5781V224.016H78.9375V222.828H70.5625V221.906H80.1562V224.859ZM80.1094 216.672H71.9062V217.891H80.3594V218.781H70.6875V215.828H78.875V214.688H70.6406V213.797H80.1094V216.672ZM99.6094 225.547H86.8906V224.516H92.6094V221.891H88.4844V217.609H96.7969V215.422H88.4531V214.406H98V218.609H89.7031V220.875H98.3281V221.891H93.8125V224.516H99.6094V225.547ZM111.938 221.078H102.344V214.672H111.797V215.688H103.562V220.062H111.938V221.078ZM113.438 225.375H100.719V224.344H113.438V225.375ZM127.203 220.891H121.469V222.375C122.792 222.432 123.818 222.672 124.547 223.094C125.281 223.51 125.651 224.083 125.656 224.812C125.651 225.323 125.458 225.758 125.078 226.117C124.698 226.482 124.151 226.758 123.438 226.945C122.724 227.138 121.87 227.234 120.875 227.234C119.875 227.234 119.016 227.138 118.297 226.945C117.578 226.758 117.029 226.482 116.648 226.117C116.268 225.758 116.078 225.323 116.078 224.812C116.078 224.083 116.443 223.51 117.172 223.094C117.901 222.672 118.932 222.432 120.266 222.375V220.891H114.547V219.875H127.203V220.891ZM120.875 223.312C120.13 223.318 119.492 223.38 118.961 223.5C118.43 223.62 118.023 223.792 117.742 224.016C117.461 224.234 117.323 224.5 117.328 224.812C117.323 225.12 117.461 225.383 117.742 225.602C118.023 225.82 118.43 225.987 118.961 226.102C119.497 226.221 120.135 226.281 120.875 226.281C121.604 226.281 122.234 226.221 122.766 226.102C123.302 225.987 123.711 225.82 123.992 225.602C124.279 225.383 124.422 225.12 124.422 224.812C124.422 224.505 124.279 224.24 123.992 224.016C123.711 223.792 123.305 223.62 122.773 223.5C122.242 223.38 121.609 223.318 120.875 223.312ZM126.078 215.031H121.672C121.698 215.536 121.938 216.005 122.391 216.438C122.844 216.865 123.435 217.221 124.164 217.508C124.893 217.789 125.672 217.974 126.5 218.062L126.047 219.031C125.276 218.938 124.544 218.766 123.852 218.516C123.159 218.26 122.552 217.935 122.031 217.539C121.51 217.143 121.125 216.695 120.875 216.195C120.63 216.695 120.247 217.143 119.727 217.539C119.206 217.935 118.599 218.26 117.906 218.516C117.214 218.766 116.479 218.938 115.703 219.031L115.266 218.062C116.078 217.974 116.846 217.789 117.57 217.508C118.299 217.221 118.891 216.862 119.344 216.43C119.802 215.997 120.047 215.531 120.078 215.031H115.703V214.031H126.078V215.031ZM139.844 220.828H138.625V213.375H139.844V220.828ZM132.062 223.219H138.625V221.531H139.844V227.078H130.844V221.531H132.062V223.219ZM138.625 226.078V224.203H132.062V226.078H138.625ZM132.344 214.062C133.042 214.057 133.667 214.188 134.219 214.453C134.771 214.719 135.203 215.096 135.516 215.586C135.828 216.07 135.984 216.625 135.984 217.25C135.984 217.87 135.828 218.422 135.516 218.906C135.203 219.391 134.771 219.768 134.219 220.039C133.667 220.305 133.042 220.438 132.344 220.438C131.646 220.438 131.021 220.305 130.469 220.039C129.917 219.768 129.484 219.391 129.172 218.906C128.859 218.422 128.703 217.87 128.703 217.25C128.703 216.625 128.859 216.07 129.172 215.586C129.484 215.096 129.917 214.719 130.469 214.453C131.021 214.188 131.646 214.057 132.344 214.062ZM132.344 215.094C131.875 215.089 131.453 215.18 131.078 215.367C130.708 215.549 130.419 215.805 130.211 216.133C130.003 216.461 129.901 216.833 129.906 217.25C129.901 217.667 130.003 218.042 130.211 218.375C130.419 218.703 130.708 218.961 131.078 219.148C131.453 219.331 131.875 219.422 132.344 219.422C132.807 219.422 133.224 219.331 133.594 219.148C133.964 218.961 134.253 218.703 134.461 218.375C134.674 218.042 134.781 217.667 134.781 217.25C134.781 216.833 134.674 216.461 134.461 216.133C134.253 215.805 133.964 215.549 133.594 215.367C133.224 215.18 132.807 215.089 132.344 215.094ZM153.656 227.266H152.438V213.375H153.656V227.266ZM144.312 222.625C146.661 222.615 148.875 222.391 150.953 221.953L151.125 223C149.943 223.245 148.792 223.422 147.672 223.531C146.552 223.635 145.406 223.688 144.234 223.688H143.109V214.75H144.312V222.625ZM166.781 218.875H169.109V219.906H166.781V227.297H165.562V213.375H166.781V218.875ZM163.125 215.75H157.859V222.781C159.156 222.781 160.289 222.745 161.258 222.672C162.227 222.599 163.214 222.469 164.219 222.281L164.375 223.344C163.349 223.531 162.341 223.656 161.352 223.719C160.362 223.781 159.156 223.812 157.734 223.812H156.641V214.734H163.125V215.75ZM171.328 226.094C171.146 226.094 170.977 226.049 170.82 225.961C170.669 225.867 170.547 225.742 170.453 225.586C170.365 225.43 170.323 225.26 170.328 225.078C170.323 224.901 170.365 224.737 170.453 224.586C170.547 224.43 170.669 224.307 170.82 224.219C170.977 224.125 171.146 224.078 171.328 224.078C171.505 224.078 171.669 224.125 171.82 224.219C171.977 224.307 172.099 224.43 172.188 224.586C172.281 224.737 172.328 224.901 172.328 225.078C172.328 225.26 172.281 225.43 172.188 225.586C172.099 225.742 171.977 225.867 171.82 225.961C171.669 226.049 171.505 226.094 171.328 226.094Z" fill="#A9A9A9"/>
<circle cx="99.9994" cy="110" r="33.3333" stroke="#A9A9A9" stroke-width="5"/>
<path d="M100 126.667V106.667" stroke="#A9A9A9" stroke-width="5" stroke-linecap="round"/>
<circle cx="3.33333" cy="3.33333" r="3.33333" transform="matrix(1 0 0 -1 96.666 100)" fill="#A9A9A9"/>
</g>
<defs>
<clipPath id="clip0_305_2241">
<rect width="200" height="300" fill="white"/>
</clipPath>
</defs>
</svg>
