<svg width="123" height="20" viewBox="0 0 123 20" fill="none" xmlns="http://www.w3.org/2000/svg">
<g clip-path="url(#clip0_308_3997)">
<path fill-rule="evenodd" clip-rule="evenodd" d="M63.8549 19.7044H59.1805V4.92611H63.8549V19.7044ZM63.9779 3.44828H59.0574V0H63.9779V3.44828ZM34.2875 8.32512C36.8215 8.32512 37.0921 8.71921 37.0921 12.3153C37.0921 15.9113 36.8215 16.3054 34.2875 16.3054C31.7535 16.3054 31.4828 15.9113 31.4828 12.3153C31.4828 8.71921 31.7535 8.32512 34.2875 8.32512ZM26.5624 12.3153C26.5624 18.4729 28.1123 20 34.2875 20C40.4626 20 42.0126 18.4729 42.0126 12.3153C42.0126 6.15764 40.4626 4.63054 34.2875 4.63054C28.1123 4.63054 26.5624 6.15764 26.5624 12.3153ZM58.1879 4.92611H53.5381L50.3152 16.2562H50.1676L47.2399 4.92611H42.3933L46.4773 19.7044H53.6857L58.1879 4.92611ZM80.3335 15H75.4131C75.4131 16.2315 74.921 16.5517 72.9775 16.5517C70.9601 16.5517 70.4926 16.2315 70.3942 13.6453H80.4565V11.3547C80.3335 5.98522 78.7836 4.63054 72.9529 4.63054C66.9499 4.63054 65.4492 6.15764 65.4492 12.3153C65.4492 18.4729 66.9499 20 72.9529 20C78.759 20 80.2351 18.9901 80.3335 15ZM70.4188 10.197C70.5911 8.32512 71.1569 8.07882 72.9775 8.07882C75.1425 8.07882 75.4869 8.30049 75.5361 10.197H70.4188ZM86.6051 14.2611C86.6051 15.3941 86.8019 15.5172 88.5487 15.5172V19.7044H85.8671C82.6934 19.7044 81.9061 18.8916 81.9307 15.665V0H86.6051V14.2611ZM90.1388 19.7044H94.8132V4.92611H90.1388V19.7044ZM90.0158 3.44828H94.9362V0H90.0158V3.44828ZM101.082 14.7537V15.0739C101.082 16.4039 101.353 16.5517 103.862 16.5517C106.248 16.5517 106.519 16.4286 106.519 15.4187C106.519 14.6798 105.83 14.3596 103.026 13.8424C98.0067 12.8571 96.752 11.9212 96.752 9.08867C96.752 5.51724 98.2035 4.63054 103.985 4.63054C109.644 4.63054 111.07 5.64039 111.07 9.63054V10.0739H106.396V9.63054C106.396 8.2266 106.15 8.07882 103.985 8.07882C101.894 8.07882 101.672 8.20197 101.672 9.23645C101.672 9.92611 102.091 10.1478 103.714 10.3941C109.89 11.4039 111.439 12.4877 111.439 15.7635C111.439 19.1626 109.939 20 103.985 20C97.9329 20 96.4076 19.0148 96.4076 15.0739V14.7537H101.082ZM123 15.5172H120.515C118.99 15.5172 118.818 15.3202 118.818 13.5222V8.86699H122.754V4.92611H118.818V1.7734H114.389V4.92611H112.667V8.86699H114.143V14.7291C114.143 18.7192 115.324 19.7044 120.048 19.7044H123V15.5172ZM8.87845 19.7044L6 5.41872V0.49261H10.0348L12.9132 14.7783H13.11L16.0131 0.49261H25.0913V19.7044H19.9248V5.41872H19.7772L16.8742 19.7044H8.87845ZM0 0.490265H1.72248V1.29123H3.44482V0.490448H5.1673V1.29123H5.16744V2.89236H5.1673V4.49382H5.16744V6.09495H5.1673V7.69794H5.16744V9.29907H5.1673V10.8996H5.16744V12.5007H5.1673V14.1027H5.16744V15.7039H5.1673V17.3059H5.16744V18.907H5.1673V19.708H3.44482V18.907H1.72248V19.7078H0V18.907V17.3059V15.7039V14.1027V12.5007V10.8996V9.29907V7.69794V6.09495V4.49382V2.89236V1.29123V0.490265ZM1.72248 4.49382V2.89236H3.44482V4.49382H1.72248ZM1.72248 6.09495V7.69794H3.44482V6.09495H1.72248ZM1.72248 10.8996V9.29907H3.44482V10.8996H1.72248ZM1.72248 12.5007V14.1027H3.44482V12.5007H1.72248ZM1.72248 17.3059V15.7039H3.44482V17.3059H1.72248Z" fill="white"/>
</g>
<defs>
<clipPath id="clip0_308_3997">
<rect width="123" height="20" fill="white"/>
</clipPath>
</defs>
</svg>
