<svg xmlns="http://www.w3.org/2000/svg" xmlns:xlink="http://www.w3.org/1999/xlink" version="1.1" x="0px" y="0px" viewBox="0 0 120 150" enable-background="new 0 0 100 100" xml:space="preserve">
  <g>
    <g>
      <path fill="#000000" d="M90.97,52.674c-0.029-4.835-3.964-8.75-8.809-8.75c-4.87,0-8.819,3.943-8.819,8.812    c0,0.321,0.021,0.647,0.058,0.964v0.421c0,13.209-10.745,23.955-23.954,23.955c-13.208,0-23.955-10.746-23.955-23.955    c0-13.202,10.747-23.953,23.955-23.953c0.994,0,1.989,0.062,2.982,0.187v3.611c0.003,0,0.006,0,0.006,0    c0,0.016-0.006,0.035-0.006,0.058c0,3.554,2.884,6.439,6.442,6.439c2.066,0,3.885-0.986,5.062-2.497c0.003,0,0.003,0,0.003,0    l11.177-11.207c1.315-1.183,2.155-2.874,2.155-4.776c0-2.188-1.093-4.109-2.756-5.271L63.653,5.839    c-0.155-0.183-0.319-0.346-0.49-0.497l-0.188-0.187c-0.021,0-0.033-0.012-0.055-0.012c-1.107-0.907-2.504-1.465-4.051-1.465    c-3.383,0-6.124,2.614-6.389,5.928c-0.021,0.018-0.033,0.046-0.054,0.062v3.01c-1-0.072-1.994-0.107-2.982-0.107    c-22.915,0-41.56,18.64-41.56,41.551c0,22.913,18.645,41.552,41.56,41.552C72.359,95.673,91,77.034,91,54.121v-1.424    C90.987,52.692,90.982,52.68,90.97,52.674z"/>
    </g>
  </g>
</svg>