<svg width="20" height="20" viewBox="0 0 20 20" fill="none" xmlns="http://www.w3.org/2000/svg">
<path d="M15.5625 19.5596C15.4004 19.5595 15.2407 19.5201 15.0972 19.4448L10 16.7651L4.90283 19.4448C4.73766 19.5316 4.55149 19.5705 4.36537 19.5571C4.17926 19.5436 4.00062 19.4784 3.84965 19.3687C3.69868 19.259 3.5814 19.1093 3.51107 18.9365C3.44074 18.7636 3.42016 18.5745 3.45166 18.3906L4.42529 12.7148L0.301763 8.69584C0.16818 8.56556 0.073701 8.40051 0.0290025 8.21934C-0.015696 8.03818 -0.00883183 7.84812 0.0488191 7.67066C0.10647 7.49319 0.212609 7.33538 0.355243 7.21508C0.497876 7.09477 0.671316 7.01675 0.855962 6.98984L6.55469 6.16171L9.103 0.998054C9.19511 0.842106 9.32628 0.712866 9.48357 0.623085C9.64087 0.533304 9.81886 0.486084 9.99997 0.486084C10.1811 0.486084 10.3591 0.533304 10.5164 0.623085C10.6737 0.712866 10.8048 0.842106 10.8969 0.998054L13.4453 6.16162L19.144 6.98975C19.3287 7.01666 19.5021 7.09468 19.6447 7.21499C19.7874 7.33529 19.8935 7.4931 19.9512 7.67057C20.0088 7.84804 20.0157 8.03809 19.971 8.21925C19.9263 8.40042 19.8318 8.56547 19.6982 8.69575L15.5747 12.7148L16.5483 18.3905C16.5729 18.5341 16.5659 18.6813 16.5277 18.8218C16.4895 18.9624 16.421 19.0929 16.3271 19.2042C16.2333 19.3156 16.1162 19.405 15.9841 19.4664C15.852 19.5278 15.7081 19.5596 15.5625 19.5595L15.5625 19.5596Z" fill="#FFC700"/>
</svg>
