<svg width="48" height="48" viewBox="0 0 48 48" fill="none" xmlns="http://www.w3.org/2000/svg">
<path d="M35.1252 43.1187C34.801 43.1185 34.4817 43.0398 34.1946 42.8892L24.0002 37.5298L13.8059 42.8892C13.4756 43.0628 13.1032 43.1405 12.731 43.1136C12.3588 43.0867 12.0015 42.9562 11.6995 42.7369C11.3976 42.5175 11.163 42.2181 11.0224 41.8724C10.8817 41.5267 10.8406 41.1486 10.9036 40.7808L12.8508 29.4292L4.60377 21.3912C4.3366 21.1306 4.14765 20.8005 4.05825 20.4382C3.96885 20.0759 3.98258 19.6958 4.09788 19.3408C4.21318 18.9859 4.42546 18.6703 4.71073 18.4297C4.996 18.189 5.34288 18.033 5.71217 17.9792L17.1096 16.3229L22.2062 5.99562C22.3905 5.68372 22.6528 5.42524 22.9674 5.24568C23.282 5.06612 23.638 4.97168 24.0002 4.97168C24.3624 4.97168 24.7184 5.06612 25.033 5.24568C25.3476 5.42524 25.6099 5.68372 25.7941 5.99562L30.8908 16.3228L42.2883 17.979C42.6576 18.0328 43.0044 18.1889 43.2897 18.4295C43.575 18.6701 43.7873 18.9857 43.9026 19.3406C44.0179 19.6956 44.0316 20.0757 43.9422 20.438C43.8528 20.8003 43.6638 21.1305 43.3967 21.391L35.1496 29.429L37.0969 40.7806C37.1461 41.0677 37.132 41.3621 37.0556 41.6432C36.9792 41.9242 36.8423 42.1853 36.6545 42.4079C36.4668 42.6306 36.2326 42.8096 35.9684 42.9323C35.7043 43.0551 35.4165 43.1186 35.1252 43.1186L35.1252 43.1187Z" fill="#888888"/>
<path d="M43.9023 19.3408C43.787 18.9859 43.5747 18.6704 43.2894 18.4299C43.0042 18.1893 42.6573 18.0333 42.2881 17.9795L30.8906 16.3232L25.794 5.99608C25.6203 5.67501 25.3602 5.40896 25.0432 5.22799C24.7261 5.04703 24.3648 4.95839 24 4.97208V37.5303L34.1943 42.8896C34.5247 43.0633 34.897 43.141 35.2693 43.1141C35.6415 43.0872 35.9988 42.9567 36.3007 42.7373C36.6026 42.518 36.8372 42.2186 36.9779 41.8729C37.1185 41.5272 37.1597 41.1491 37.0967 40.7812L35.1494 29.4297L43.3965 21.3917C43.6637 21.131 43.8526 20.8008 43.942 20.4384C44.0314 20.076 44.0177 19.6958 43.9023 19.3408V19.3408Z" fill="#888888"/>
</svg>
