<svg width="20" height="26" viewBox="0 0 20 26" fill="none" xmlns="http://www.w3.org/2000/svg">
<path d="M8.75 24C8.75 24.6904 9.30964 25.25 10 25.25C10.6904 25.25 11.25 24.6904 11.25 24L8.75 24ZM10.8839 1.11612C10.3957 0.627961 9.60427 0.627961 9.11612 1.11612L1.16117 9.07107C0.673011 9.55922 0.67301 10.3507 1.16117 10.8388C1.64932 11.327 2.44078 11.327 2.92893 10.8388L10 3.76777L17.0711 10.8388C17.5592 11.327 18.3507 11.327 18.8388 10.8388C19.327 10.3507 19.327 9.55922 18.8388 9.07107L10.8839 1.11612ZM11.25 24L11.25 2L8.75 2L8.75 24L11.25 24Z" fill="#F5F5F5"/>
</svg>
